<svg id="Capa_1" data-name="Capa 1" xmlns="http://www.w3.org/2000/svg" viewBox="6.52 15.57 416.22 106.33">
  <defs>
    <style>
      .cls-1 {
        fill: #fff;
      }
    </style>
  </defs>
  <g id="Capa_1-2" data-name="Capa 1-2">
    <g>
      <g>
        <path class="cls-1" d="M317,54a9.547,9.547,0,0,1-5.2,1.5,10.231,10.231,0,0,1-4.6-.9c-.5-.3-.6-.5-.6-1.4a24.476,24.476,0,0,1,.2-3.6c0-.2.1-.7.4-.7s.4.2.4.5a4.881,4.881,0,0,0,.1,1.2c.5,2.4,2.7,3.4,4.9,3.4a4.384,4.384,0,0,0,4.689-4.056c.008-.115.012-.229.011-.344,0-2.3-.9-3.6-3.9-6l-1.5-1.3c-3.6-3-4.5-5.1-4.5-7.5,0-3.7,2.8-6.2,7.2-6.2a14.511,14.511,0,0,1,3.2.3,9.536,9.536,0,0,0,1.2.2c.3,0,.5.1.5.4,0,.2-.1,1.3-.1,3.6,0,.2,0,.9-.4.9-.3,0-.4-.3-.4-.6a5.269,5.269,0,0,0-.4-1.7c-.2-.3-1.1-1.7-4.1-1.7-2.3,0-4.1,1.4-4.1,3.8,0,1.9.9,3,4.1,5.6l1,.7c4,3.2,5,5.3,5,8.1A7.677,7.677,0,0,1,317,54Z"/>
        <path class="cls-1" d="M179.7,40.1c1.2,1.4,5.5,6.1,9.9,10.9,4,4.3,9.5,9.9,9.9,10.3,2,2,2.5,2.4,2.8,2.4s.3-.2.3-2.7l.1-22.2c0-2.3.1-3.1,1.4-3.4a3.893,3.893,0,0,1,.9-.1c.3,0,.4-.1.4-.3s-.3-.3-.7-.3c-1.6,0-2.8.1-3.2.1s-2.2-.1-3.9-.1c-.5,0-.8,0-.8.3,0,.2,0,.3.3.3a7.546,7.546,0,0,1,1.9.2c1.2.3,1.4,1.1,1.5,3.6l.4,19.2c-1.2-1.2-5.3-5.9-9.1-9.9-5.8-6.2-11.5-12.3-12-13-.4-.4-1-1.2-1.3-1.2s-.4.4-.4,1.9V57.8c0,3.4-.2,4.5-1.1,4.8a4.974,4.974,0,0,1-1.6.2c-.2,0-.3.1-.3.2,0,.3.2.3.6.3,1.7,0,3.3-.1,3.6-.1s1.9.1,4,.1c.5,0,.7-.1.7-.3s-.1-.2-.3-.2a7.546,7.546,0,0,1-1.9-.2c-1-.3-1.4-1.3-1.5-4.4Z"/>
        <path class="cls-1" d="M218.4,45.7c0-5.9,0-7,.1-8.2.1-1.3.4-2,1.4-2.2a3.893,3.893,0,0,1,.9-.1c.2,0,.3-.1.3-.2q0-.3-.6-.3c-1.1,0-3.5.1-3.7.1s-2.6-.1-3.8-.1q-.6,0-.6.3c0,.2.2.2.3.2a2.738,2.738,0,0,1,1.2.2c.8.2,1.2.8,1.3,2.1.1,1.2.1,2.3.1,8.2v6.7c0,3.6,0,6.6-.2,8.2-.2,1.1-.3,1.9-1.1,2.1a4.242,4.242,0,0,1-1.1.2c-.2,0-.3.1-.3.2q0,.3.6.3c1.1,0,3.5-.1,3.7-.1s2.6.1,4.7.1q.6,0,.6-.3c0-.1-.1-.2-.3-.2a12.776,12.776,0,0,1-1.7-.2c-1.1-.2-1.4-1-1.5-2.1-.2-1.6-.2-4.6-.2-8.2l-.1-6.7Z"/>
        <path class="cls-1" d="M233,39.4a14.009,14.009,0,0,1-1-3.1.823.823,0,0,1,.5-.8,3.182,3.182,0,0,1,1.4-.2c.3,0,.4-.1.4-.3s-.3-.3-1-.3c-1.4,0-3.1.1-3.5.1-.5,0-2.6-.1-4.4-.1-.6,0-1,0-1,.3a.265.265,0,0,0,.225.3.236.236,0,0,0,.075,0,4.18,4.18,0,0,1,1.4.2c1.3.4,1.9.8,2.7,2.9l9.3,23.2c.7,1.8.9,2.3,1.4,2.3.4,0,.5-.6,1.6-2.9.9-1.9,2.6-5.9,4.9-11.5,1.9-4.7,3.8-9.2,4.2-10.3,1-2.6,1.6-3.2,2.1-3.6a3.218,3.218,0,0,1,1.8-.5c.3,0,.5-.1.5-.3s-.2-.3-.6-.3c-1.1,0-2.7.1-3,.1-.5,0-2.2-.1-3.7-.1-.6,0-.8.1-.8.3s.2.2.4.2a3.4,3.4,0,0,1,1.4.2.957.957,0,0,1,.5.9,11.942,11.942,0,0,1-.3,1.4c-.8,2.7-5.9,15.9-8.1,21Z"/>
        <path class="cls-1" d="M260.4,52.4c0,3.6,0,6.6-.2,8.2-.2,1.1-.3,1.9-1.1,2.1a4.242,4.242,0,0,1-1.1.2c-.2,0-.3.1-.3.2q0,.3.6.3c1.1,0,3.5-.1,3.7-.1,1.1,0,3.6.2,9.4.2,1.5,0,1.8,0,2-1a35.2,35.2,0,0,0,.5-3.7c0-.3,0-.6-.2-.6s-.3.2-.3.6c-.3,1.6-.7,2.3-1.7,2.7a11.078,11.078,0,0,1-3.6.4c-3.7,0-4.3-.5-4.4-3.1V49a.265.265,0,0,1,.225-.3.236.236,0,0,1,.075,0c.6,0,4.4.1,5.4.2,1.5.2,1.8.8,2,1.3a2.962,2.962,0,0,1,.2,1.2.265.265,0,0,0,.225.3.236.236,0,0,0,.075,0c.3,0,.3-.4.3-.7s.1-1.7.1-2.4c.1-1.2.3-1.9.3-2.1s-.1-.3-.2-.3c-.2,0-.3.2-.6.5-.3.4-.9.5-1.8.5-.9.1-5.5.1-6,.1-.2,0-.2-.1-.2-.4V36.6c0-.3.1-.4.2-.4.4,0,4.5,0,5.2.1,2,.2,2.4.7,2.7,1.3a3.915,3.915,0,0,1,.2,1.4c0,.3.1.5.3.5s.2-.2.3-.4c.1-.5.1-2.1.2-2.5.1-1.1.3-1.5.3-1.8,0-.2,0-.3-.1-.3-.2,0-.3.2-.5.2a5.65,5.65,0,0,1-1.6.2h-8.7c-.2,0-2.6-.1-4.3-.1q-.6,0-.6.3c0,.2.1.2.3.2a5.724,5.724,0,0,1,1.3.1c1.2.3,1.6.9,1.6,2.2.1,1.2.1,2.3.1,8.2Z"/>
        <path class="cls-1" d="M330.5,45.7c0-5.9,0-7,.1-8.2.1-1.3.4-2,1.4-2.2a3.893,3.893,0,0,1,.9-.1c.1,0,.3-.1.3-.2q0-.3-.6-.3c-1.1,0-3.5.1-3.7.1s-2.6-.1-3.8-.1q-.6,0-.6.3c0,.2.2.2.3.2a2.738,2.738,0,0,1,1.2.2c.8.2,1.2.8,1.3,2.1.1,1.2.1,2.3.1,8.2v6.7c0,3.6,0,6.6-.2,8.2-.2,1.1-.3,1.9-1.1,2.1a4.242,4.242,0,0,1-1.1.2c-.2,0-.3.1-.3.2q0,.3.6.3c1.1,0,3.5-.1,3.7-.1s2.6.1,4.7.1q.6,0,.6-.3c0-.1-.1-.2-.3-.2a12.8,12.8,0,0,1-1.7-.2c-1.1-.2-1.4-1-1.5-2.1-.2-1.6-.2-4.6-.2-8.2l-.1-6.7Z"/>
        <path class="cls-1" d="M148.3,31.7a19.158,19.158,0,0,1-1.3-4.1,1.111,1.111,0,0,1,.6-1,5.542,5.542,0,0,1,1.9-.2c.3,0,.5-.1.5-.3s-.4-.3-1.3-.3c-1.9,0-4.1.1-4.6.1-.6,0-3.4-.1-5.7-.1-.8,0-1.3,0-1.3.3,0,.2.1.3.4.3a7.989,7.989,0,0,1,1.9.2c1.7.5,2.4,1,3.5,3.8l12,30c.9,2.3,1.2,3,1.8,3,.5,0,.7-.8,2.1-3.7,1.1-2.4,3.3-7.7,6.3-14.8,2.5-6,4.9-11.9,5.5-13.3,1.3-3.3,2.1-4.2,2.7-4.6a4.355,4.355,0,0,1,2.4-.6q.6,0,.6-.3c0-.2-.3-.3-.8-.3-1.4,0-3.5.1-3.8.1-.6,0-2.8-.1-4.8-.1-.8,0-1.1.1-1.1.4,0,.2.2.3.5.3a6.471,6.471,0,0,1,1.9.2,1.078,1.078,0,0,1,.6,1.1,10.809,10.809,0,0,1-.4,1.9c-1.1,3.5-7.6,20.6-10.5,27.2Z"/>
        <path class="cls-1" d="M393.1,63.1c0-.2-.2-.2-.4-.2a4.974,4.974,0,0,1-1.6-.2c-.8-.2-2.1-.8-4.1-4.2-3.5-5.8-12.8-21.4-13.6-22.8-.7-1.2-.9-1.4-1.1-1.4s-.3.2-.5,1.5L368,59.2c-.3,1.9-.7,3.3-2.4,3.6-.3,0-.8.1-1.1.1-.2,0-.3.1-.3.2,0,.2.3.3.8.3,1.8,0,3.8-.1,4.3-.1.4,0,2.1.1,3,.1.3,0,.6-.1.5-.3,0-.2-.2-.2-.4-.2H372a1.7,1.7,0,0,1-1.7-1.1,10.454,10.454,0,0,1,0-2.5l.9-6.7a.265.265,0,0,1,.225-.3.236.236,0,0,1,.075,0h8.1a.517.517,0,0,1,.4.2l5.5,9.3c.4.6.2.9,0,1-.1,0-.2.1-.2.3s.5.2,1.2.3c2.6.1,5.4.1,6,.1C392.8,63.4,393.1,63.3,393.1,63.1ZM378.8,50.8h-7.2c-.1,0-.2-.1-.2-.3l1.2-10.2q.15-.9.6,0l5.7,10.2C379,50.7,379,50.8,378.8,50.8Z"/>
        <path class="cls-1" d="M352.2,36.4l4.8.1c3.6.1,4.5.9,4.7,2.1V39c0,.5.1.6.3.6s.3-.2.3-.5c0-.4.1-3,.1-4.2,0-.2,0-.5-.2-.5a16.929,16.929,0,0,1-3.7.4H344.3c-.5,0-1.9-.1-3-.2a9.417,9.417,0,0,1-1.7-.5c-.2,0-.3.5-.4.7-.1.3-.8,3.6-.8,3.9,0,.2.1.3.2.3.2,0,.3-.1.4-.4a6.2,6.2,0,0,1,.6-1.2c.6-.9,1.5-1.2,3.9-1.2l5.6-.1v16c0,3.6,0,6.6-.2,8.2-.2,1.1-.3,1.9-1.1,2.1a4.242,4.242,0,0,1-1.1.2c-.2,0-.3.1-.3.2q0,.3.6.3c1.1,0,3.5-.1,3.7-.1s2.6.1,4.7.1q.6,0,.6-.3c0-.1-.1-.2-.3-.2a12.8,12.8,0,0,1-1.7-.2c-1.1-.2-1.4-1-1.5-2.1-.2-1.6-.2-4.6-.2-8.2Z"/>
        <path class="cls-1" d="M402.2,36.4l4.8.1c3.6.1,4.5.9,4.7,2.1V39c0,.5.1.6.3.6s.3-.2.3-.5c0-.4.1-3,.1-4.2,0-.2,0-.5-.2-.5a16.929,16.929,0,0,1-3.7.4H394.3c-.5,0-1.9-.1-3-.2a9.417,9.417,0,0,1-1.7-.5c-.1,0-.3.5-.4.7-.1.3-.8,3.6-.8,3.9,0,.2.1.3.2.3s.3-.1.4-.4a6.2,6.2,0,0,1,.6-1.2c.6-.9,1.5-1.2,3.9-1.2l5.6-.1v16c0,3.6,0,6.6-.2,8.2-.2,1.1-.3,1.9-1.1,2.1a4.242,4.242,0,0,1-1.1.2c-.2,0-.3.1-.3.2q0,.3.6.3c1.1,0,3.5-.1,3.7-.1s2.6.1,4.7.1q.6,0,.6-.3c0-.1-.1-.2-.3-.2a12.8,12.8,0,0,1-1.7-.2c-1.1-.2-1.4-1-1.5-2.1-.2-1.6-.2-4.6-.2-8.2Z"/>
        <path class="cls-1" d="M316.7,60.9c-.9.3-1.6,1-2.6,1.3-3.6.7-7.8,1.5-10-2-2.2-3.6-4.6-8.2-8.9-9.6,3.4-3.1,4.6-5.9,4.6-8.7a6.948,6.948,0,0,0-2.6-5.2,11.84,11.84,0,0,0-6.9-1.7c-1.2,0-4.1.1-4.5.1-.2,0-2.6-.1-4.3-.1q-.6,0-.6.3c0,.2.2.2.3.2a5.724,5.724,0,0,1,1.3.1c1.2.3,1.6.9,1.6,2.2.1,1.2.1,2.3.1,8.2v6.7c0,3.6,0,6.6-.2,8.2-.2,1.1-.3,1.9-1.1,2.1a4.242,4.242,0,0,1-1.1.2c-.2,0-.3.1-.3.2q0,.3.6.3c1.1,0,3.5-.1,3.6-.1.2,0,2.6.1,4.7.1q.6,0,.6-.3c0-.1-.1-.2-.3-.2A12.8,12.8,0,0,1,289,63c-1.1-.2-1.4-1-1.5-2.1-.2-1.6-.2-4.6-.2-8.2v-.9a.265.265,0,0,1,.225-.3.236.236,0,0,1,.075,0l4.7.1c3.8,2.5,5.7,6.6,8.6,10,3.5,3.7,9.1,3.9,13.4,2.1C315,62.8,316.8,62.2,316.7,60.9ZM294.3,49.6a4.868,4.868,0,0,1-2.8.7,11.491,11.491,0,0,1-4-.6.551.551,0,0,1-.3-.5V36.9a.551.551,0,0,1,.3-.5,13.011,13.011,0,0,1,2.5-.2c4.1,0,6.6,2.8,6.6,7.6C296.6,46.7,295.6,48.7,294.3,49.6Z"/>
      </g>
      <g>
        <path class="cls-1" d="M167.5,84.8c-5.5-4.6-13.9-4.3-18.4-4.3-2.8,0-5.7.1-6.2.1-.2,0-3.1-.1-5.2-.1-.5,0-.7.1-.7.3,0,.1.2.2.4.2a8.57,8.57,0,0,1,1.6.1c1.5.3,1.9.9,2,2.1s.1,2.3.1,8.1V98c0,3.6,0,6.6-.2,8.2-.2,1.1-.4,1.9-1.3,2.1a6.635,6.635,0,0,1-1.4.1c-.3,0-.4.1-.4.2,0,.2.2.3.7.3,1.4,0,4.3-.1,4.5-.1.5,0,6.2.4,10.2.4,7.8,0,11.9-2.6,13.9-4.3a13.97,13.97,0,0,0,5-10.6A12.92,12.92,0,0,0,167.5,84.8Zm-1.8,19.7c-2.7,2.2-8.2,3.5-12.5,3.5-5.4,0-7.2-.8-7.8-1.5-.4-.4-.5-1.9-.5-2.9,0-.7-.1-4.2-.1-8.2V82.7c0-.4.1-.6.6-.8a20,20,0,0,1,3-.3c5.5,0,12.3.5,16.6,4.2a12.234,12.234,0,0,1,4.4,9.5C169.3,99,168.1,102.6,165.7,104.5Z"/>
        <path class="cls-1" d="M152.2,97.2c0,2.3,0,4.2-.1,5.3-.1.7-.2,1.2-.7,1.3-.2,0-.5.1-.7.1a.354.354,0,0,0-.2.1c0,.1.1.2.4.2.7,0,2.3-.1,2.4-.1.7,0,2.3.1,6,.1.9,0,1.1,0,1.3-.6.1-.5.3-2.2.3-2.4s0-.4-.1-.4-.2.1-.2.4c-.2,1-.5,1.5-1.1,1.7a6.082,6.082,0,0,1-2.3.3c-2.4,0-2.7-.3-2.8-2V95c0-.1,0-.2.2-.2.4,0,2.8.1,3.5.1.9.1,1.2.5,1.3.8a2.487,2.487,0,0,1,.1.8c0,.1,0,.2.2.2s.2-.3.2-.5a10.318,10.318,0,0,1,.1-1.6c.1-.8.2-1.2.2-1.4,0-.1,0-.2-.1-.2s-.2.1-.4.3a1.607,1.607,0,0,1-1.1.3h-3.9c-.1,0-.1-.1-.1-.2V86.7c0-.2,0-.2.1-.2.3,0,2.9,0,3.3.1,1.3.1,1.6.4,1.7.8a3.1,3.1,0,0,1,.1.9c0,.2,0,.3.2.3.1,0,.1-.1.2-.3,0-.3.1-1.4.1-1.6.1-.7.2-1,.2-1.1s0-.2-.1-.2-.2.1-.3.1c-.2,0-.6.1-1,.1h-5.6c-.1,0-1.6-.1-2.7-.1-.3,0-.4,0-.4.2,0,.1.1.1.2.1a2.21,2.21,0,0,1,.8.1c.8.2,1,.6,1,1.4v5.2l-.2,4.7Z"/>
      </g>
      <g>
        <g>
          <path class="cls-1" d="M300.2,77.5c.2,0,.3-.1.3-.2s-.3-.3-.7-.5c-1.6-1-4.3-2.9-4.6-3.2s-.4-.6-.6-.6a3.84,3.84,0,0,0-.6.2,21.928,21.928,0,0,1-2.3.7c-.3.1-.4.1-.4.3s.3.3,1.1.6A80.109,80.109,0,0,0,300.2,77.5Z"/>
          <path class="cls-1" d="M292.7,98.1c0,3.6,0,6.6-.2,8.2-.2,1.1-.3,1.9-1.1,2.1a4.242,4.242,0,0,1-1.1.2c-.2,0-.3.1-.3.2q0,.3.6.3c1.1,0,3.5-.1,3.7-.1,1.1,0,3.6.2,9.4.2,1.5,0,1.8,0,2-1a35.2,35.2,0,0,0,.5-3.7c0-.3,0-.6-.2-.6s-.3.2-.3.6c-.3,1.6-.7,2.3-1.7,2.7a11.078,11.078,0,0,1-3.6.4c-3.7,0-4.3-.5-4.4-3.1V94.7a.265.265,0,0,1,.225-.3.236.236,0,0,1,.075,0c.6,0,4.4.1,5.4.2,1.5.2,1.8.8,2,1.3a5.75,5.75,0,0,1,.1,1.2.265.265,0,0,0,.225.3.236.236,0,0,0,.075,0c.3,0,.3-.4.3-.7s.1-1.7.2-2.4c.1-1.2.3-1.9.3-2.1s-.1-.3-.2-.3c-.2,0-.3.2-.6.5-.3.4-.9.5-1.8.5-.9.1-5.5.1-6,.1-.2,0-.2-.1-.2-.4V82.3c0-.3.1-.4.2-.4.4,0,4.5,0,5.2.1,2,.2,2.4.7,2.7,1.3a3.915,3.915,0,0,1,.2,1.4c0,.3.1.5.3.5s.2-.2.3-.4a22.99,22.99,0,0,0,.2-2.5c.1-1.1.3-1.5.3-1.8,0-.2,0-.3-.2-.3s-.3.2-.5.2a5.65,5.65,0,0,1-1.6.2h-8.7c-.2,0-2.6-.1-4.3-.1q-.6,0-.6.3c0,.2.2.2.3.2a5.724,5.724,0,0,1,1.3.1c1.2.3,1.5.9,1.6,2.2.1,1.2.1,2.3.1,8.2Z"/>
        </g>
        <path class="cls-1" d="M216.2,77.2a19.158,19.158,0,0,1-1.3-4.1,1.111,1.111,0,0,1,.6-1,5.542,5.542,0,0,1,1.9-.2c.3,0,.5-.1.5-.3s-.4-.3-1.3-.3c-1.9,0-4.1.1-4.6.1-.6,0-3.4-.1-5.7-.1-.8,0-1.3.1-1.3.3s.1.3.4.3a7.989,7.989,0,0,1,1.9.2c1.7.5,2.4,1,3.5,3.8l12,30c.9,2.3,1.2,3,1.8,3,.5,0,.7-.8,2.1-3.7,1.1-2.4,3.3-7.7,6.3-14.8,2.5-6,4.9-11.9,5.5-13.3,1.3-3.3,2.1-4.2,2.7-4.6a4.246,4.246,0,0,1,2.3-.6q.6,0,.6-.3c0-.2-.3-.3-.8-.3-1.4,0-3.5.1-3.8.1-.6,0-2.8-.1-4.8-.1-.8,0-1.1.1-1.1.4,0,.2.2.3.5.3a6.471,6.471,0,0,1,1.9.2,1.078,1.078,0,0,1,.6,1.1,10.809,10.809,0,0,1-.4,1.9c-1.1,3.5-7.6,20.6-10.5,27.2Z"/>
        <path class="cls-1" d="M422.7,108.8c0-.2-.2-.2-.4-.2a4.974,4.974,0,0,1-1.6-.2c-.8-.2-2.1-.8-4.1-4.2-3.5-5.8-12.8-21.4-13.6-22.8-.7-1.2-.9-1.4-1.1-1.4s-.3.2-.5,1.5L397.8,105c-.3,1.9-.7,3.3-2.4,3.6-.3,0-.8.1-1.1.1-.2,0-.3.1-.3.2,0,.2.3.3.8.3,1.8,0,3.8-.1,4.3-.1.4,0,2.1.1,3,.1.3,0,.6-.1.5-.3,0-.1-.2-.2-.4-.2h-.4a1.7,1.7,0,0,1-1.7-1.1,10.454,10.454,0,0,1,0-2.5l.9-6.7a.265.265,0,0,1,.225-.3.236.236,0,0,1,.075,0h8.1a.517.517,0,0,1,.4.2l5.5,9.3c.4.6.2.9,0,1-.1,0-.2.1-.2.3s.5.2,1.2.3c2.6.1,5.4.1,6,.1C422.4,109.1,422.8,109.1,422.7,108.8ZM408.4,96.6h-7.2c-.1,0-.2-.1-.2-.3l1.2-10.2q.15-.9.6,0l5.7,10.2C408.6,96.5,408.6,96.6,408.4,96.6Z"/>
        <path class="cls-1" d="M261.6,108.4a4.431,4.431,0,0,1-1.5-.2c-.8-.2-1.9-.8-3.3-4.2-2.3-5.8-8.3-21.4-8.8-22.8-.5-1.2-.6-1.4-.8-1.4s-.4.2-.8,1.5l-8.6,23.5c-.7,1.9-1.4,3.3-3.2,3.6-.3,0-.8.1-1.1.1-.2,0-.3.1-.3.2,0,.2.2.3.7.3,1.8,0,3.9-.1,4.3-.1s2,.1,3,.1c.3,0,.6-.1.6-.3,0-.1-.1-.2-.4-.2H241c-.6,0-1.4-.3-1.4-1.1a8.507,8.507,0,0,1,.5-2.5l2.3-6.7c.1-.2.2-.3.4-.3h8.1c.2,0,.3.1.3.2l3.5,9.3c.2.6,0,.9-.2,1a.265.265,0,0,0-.3.225.236.236,0,0,0,0,.075c0,.2.4.2,1.1.3,2.6.1,5.4.1,5.9.1.4,0,.8-.1.8-.3a.367.367,0,0,0-.329-.4A.421.421,0,0,0,261.6,108.4Zm-11.3-12H243c-.1,0-.2-.1-.1-.3l3.3-10.2q.3-.9.6,0l3.6,10.2C250.5,96.3,250.5,96.4,250.3,96.4Z"/>
        <path class="cls-1" d="M272.5,91.4c0-5.9,0-7,.1-8.2.1-1.3.4-2,1.5-2.2a6.273,6.273,0,0,1,1.2-.1c.2,0,.3-.1.3-.2q0-.3-.6-.3c-1.1,0-3.9.1-4.1.1s-2.6-.1-4.3-.1q-.6,0-.6.3c0,.2.1.2.3.2a5.724,5.724,0,0,1,1.3.1c1.2.3,1.6.9,1.6,2.2.1,1.2.1,2.3.1,8.2v6.7c0,3.6,0,6.6-.2,8.2-.1,1.1-.3,1.9-1.1,2.1a4.242,4.242,0,0,1-1.1.2c-.2,0-.3.1-.3.2q0,.3.6.3c1.1,0,3.4-.1,3.7-.1,2.2,0,4.7.2,10.1.2,2,0,2.1-.2,2.4-1a25.815,25.815,0,0,0,.6-3.8c0-.4,0-.6-.2-.6s-.3.2-.3.5a5.232,5.232,0,0,1-1,2.3c-.9,1.1-2.6,1.1-4.6,1.1-3,0-3.9-.3-4.5-.9-.7-.7-.8-3.1-.8-8.7Z"/>
        <path class="cls-1" d="M317.8,85.8c1.2,1.4,5.5,6.1,9.9,10.9,4,4.3,9.5,9.9,9.9,10.3,2,2,2.5,2.4,2.8,2.4s.3-.2.3-2.7l.1-22.2c0-2.3.2-3.1,1.4-3.4a3.893,3.893,0,0,1,.9-.1c.3,0,.4-.1.4-.3s-.3-.3-.7-.3c-1.6,0-2.8.1-3.2.1s-2.2-.1-3.9-.1c-.5,0-.8,0-.8.3,0,.1,0,.3.3.3a7.546,7.546,0,0,1,1.9.2c1.2.3,1.4,1.1,1.5,3.6L339,104c-1.2-1.2-5.3-5.9-9.1-9.9-5.8-6.3-11.5-12.3-12-13-.4-.4-1-1.2-1.3-1.2s-.4.4-.4,1.9v21.7c0,3.4-.2,4.5-1.1,4.8a5.277,5.277,0,0,1-1.6.2c-.2,0-.3.1-.3.2,0,.3.2.3.6.3,1.7,0,3.3-.1,3.6-.1s1.9.1,4,.1c.5,0,.7-.1.7-.3s-.1-.2-.3-.2a7.546,7.546,0,0,1-1.9-.2c-1-.3-1.4-1.3-1.5-4.4Z"/>
        <path class="cls-1" d="M366.2,109.6a21.972,21.972,0,0,0,6.8-.9c.7-.3.8-.4,1-1.1a35.926,35.926,0,0,0,.8-4.8c0-.3-.1-.6-.3-.6s-.3.2-.4.6a7.285,7.285,0,0,1-1.4,3.2c-1.5,1.6-3.8,1.9-6.6,1.9a13.7,13.7,0,0,1-13.7-13.689c0-.07,0-.141,0-.211,0-3.9.6-7.2,3.4-9.9,1.3-1.3,3.7-2.8,8.7-2.8,3.3,0,6.2,1,7.6,2.2a5.187,5.187,0,0,1,1.6,3.9c0,.5,0,.8.3.8.2,0,.3-.2.3-.8s0-2.7.1-3.9c.1-1.4.2-1.8.2-2.1,0-.2-.1-.4-.5-.4a33.974,33.974,0,0,1-3.9-.6,38.546,38.546,0,0,0-5.5-.5c-5.8,0-9.3,1.8-11.6,4.1a14.932,14.932,0,0,0-4.2,10.3,14.423,14.423,0,0,0,4.6,11.2C356.7,108.2,360.5,109.6,366.2,109.6Z"/>
        <path class="cls-1" d="M387.3,91.4c0-5.9,0-7,.1-8.2.1-1.3.4-2,1.4-2.2a3.893,3.893,0,0,1,.9-.1c.2,0,.3-.1.3-.2q0-.3-.6-.3c-1.1,0-3.5.1-3.7.1s-2.6-.1-3.8-.1q-.6,0-.6.3c0,.2.2.2.3.2a2.738,2.738,0,0,1,1.2.2c.8.2,1.2.8,1.3,2.1.1,1.2.1,2.3.1,8.2v6.7c0,3.6,0,6.6-.2,8.2-.2,1.1-.3,1.9-1.1,2.1a4.242,4.242,0,0,1-1.1.2c-.2,0-.3.1-.3.2q0,.3.6.3c1.1,0,3.5-.1,3.7-.1s2.6.1,4.7.1q.6,0,.6-.3c0-.1-.1-.2-.3-.2a12.776,12.776,0,0,1-1.7-.2c-1.1-.2-1.4-1-1.5-2.1-.2-1.6-.2-4.6-.2-8.2l-.1-6.7Z"/>
      </g>
      <g>
        <g>
          <path class="cls-1" d="M205.9,90.2c-1.8-.2-4.3.4-6.4.2,0-.2-.1-.3-.1-.5L199,88a27.388,27.388,0,0,0-2.1-6.7c-1.4-2.1-3.6-4.2-6.3-4-3.3.5-6.2,3.8-7.4,6.8-2.3,5.9-3.9,11.4-3.4,17.9.6,2.8,2.3,6.2,5.5,6.9,0,0,1.6.3,1.9.3l-.5,8.2.5.8a10.015,10.015,0,0,0,8-2.4,2.154,2.154,0,0,0-.5-1.7c-2.1-1.4-4.2.9-6,1.3a39.282,39.282,0,0,1,.7-6,12.339,12.339,0,0,0,3.4-.3c3.2-.9,3.8-2.3,5.4-4.4,1.4-3.6,1.6-7.9,1.5-11.8,2.3-.4,4.5-.4,6.4-1.6C206.3,90.8,206,90.5,205.9,90.2Zm-10.1,13.6a7.976,7.976,0,0,1-7.9,3.3c-2.1-.1-4.2-.6-5.3-2.7-2.5-6.7.5-13.6,2.4-19.7.9-2.3,2.7-4.7,5.5-5,2.1-.1,3.8,1.6,4.8,3.3a17.46,17.46,0,0,1,1.6,5.7s.3,1.4.4,1.6a.366.366,0,0,0,.1.3c-2,.2-4,.2-5.5-1.1-.2.1-.7.6-.7.9,1.1,2.2,3.9,2.5,6.5,2.3a33.571,33.571,0,0,1-1.9,11.1Z"/>
          <path class="cls-1" d="M191,84.7a2.413,2.413,0,0,1-1.3,2.6c-.8.4-1.7-.4-1.8-1.1-.2-1.2.8-2,1.8-2.5C190.3,83.7,191,84.1,191,84.7Z"/>
        </g>
        <g>
          <g>
            <polygon class="cls-1" points="199.4 69.7 194 73.8 195 75.2 200.8 71.6 199.4 69.7"/>
            <polygon class="cls-1" points="179.6 69.7 178.2 71.6 184 75.2 185 73.8 179.6 69.7"/>
          </g>
          <polygon class="cls-1" points="188.6 73.7 188.3 66.8 190.7 66.8 190.4 73.7 188.6 73.7"/>
        </g>
      </g>
    </g>
  </g>
  <g>
    <rect class="cls-1" x="87.813" y="93.668" width="0.234" height="1.055"/>
    <rect class="cls-1" x="89.046" y="91.788" width="0.323" height="1.467"/>
    <path class="cls-1" d="M60.005,21.616a.957.957,0,1,0-.952-.962v0a.956.956,0,0,0,.952.958"/>
    <path class="cls-1" d="M47.237,25.006a2.964,2.964,0,0,1,.364-.044,32.883,32.883,0,0,1-.476-3.522c.846,1.057,1.713,2.093,2.436,3.027a.8.8,0,0,1,.288-.066c.266-1.3.565-2.59.872-3.882.381,1.141.8,2.266,1.137,3.456.207-.064.392-.13.6-.18s.42-.074.635-.108c-.6-1.448-1.156-3.059-1.859-5.045a2.519,2.519,0,0,1-.315.114,2.389,2.389,0,0,1-.327.037c-.276,1.427-.644,2.766-.94,3.969-.869-1.053-1.737-2.095-2.555-3.16a2.608,2.608,0,0,1-.306.112,2.877,2.877,0,0,1-.319.034c.183,1.977.346,3.79.425,5.376a2.877,2.877,0,0,1,.338-.118"/>
    <path class="cls-1" d="M44.281,26.016a2.183,2.183,0,0,1,.321-.069c.022-1.941.176-3.837.313-5.753a2.451,2.451,0,0,1-.33.139,2.723,2.723,0,0,1-.343.1c.023,1.359-.037,2.736-.122,4.113-.857-1.069-1.767-2.095-2.545-3.192-.207.089-.419.187-.633.261s-.438.127-.656.186c1.26,1.43,2.49,2.865,3.693,4.366a2.545,2.545,0,0,1,.3-.146"/>
    <path class="cls-1" d="M37.433,29.161c.091-.043.2-.077.289-.113l-1.645-3.386,1.146.427c1.191.445,2.362.938,3.606,1.444l.6-.283-2.329-4.8a2,2,0,0,1-.268.157,2.172,2.172,0,0,1-.288.117L40.128,26c-1.529-.645-3.082-1.2-4.6-1.8l-.69.339,2.324,4.781c.086-.05.178-.113.268-.158"/>
    <path class="cls-1" d="M29.62,35.159a7.791,7.791,0,0,0,1.3-1.649l-1.436-1.6c-.134.143-.261.289-.406.419s-.3.245-.457.363l1.212,1.354a1.674,1.674,0,0,1-.487.732c-.876.792-1.92.648-2.822-.357-.873-.971-1.183-2.272-.222-3.14a1.8,1.8,0,0,1,1.664-.435l.081-.074a2.808,2.808,0,0,1-.363-.729,3.649,3.649,0,0,0-1.7.9c-1.331,1.2-1.72,2.884-.429,4.322,1.218,1.359,2.85.993,4.063-.106"/>
    <path class="cls-1" d="M15.72,58.662c.024-.129.039-.255.071-.382s.078-.245.116-.373c-.177-.155-.476-.432-.7-.672l-.912-.965c.714-.174,1.431-.355,2.165-.516.038-.224.071-.448.125-.66s.129-.433.2-.647c-1.08.235-2.077.522-3.087.8l-.2.057c-.341-.4-.683-.789-1.023-1.187l-.84-.988a3.54,3.54,0,0,1-.072.383,3,3,0,0,1-.115.363c.511.554,1.031,1.061,1.536,1.6-.685.157-1.363.348-2.05.48-.041.232-.073.456-.129.682s-.133.439-.2.662l3.149-.855c.663.711,1.3,1.44,1.971,2.225"/>
    <path class="cls-1" d="M15.519,59.28a2.332,2.332,0,0,1-.334-.013,2.6,2.6,0,0,1-.324-.092,14.153,14.153,0,0,1-.173,1.792l-1.942-.309.125-.8a7.653,7.653,0,0,1,.218-.933,2.481,2.481,0,0,1-.334-.014,2.6,2.6,0,0,1-.324-.091,7.279,7.279,0,0,1-.08.955l-.125.8-1.646-.261a11.022,11.022,0,0,1,.387-1.759,2.082,2.082,0,0,1-.335-.014,2.366,2.366,0,0,1-.322-.091l-.463,2.928,5.21.83Z"/>
    <path class="cls-1" d="M16.765,82.5a7.94,7.94,0,0,0-1-1.849l-2.028.7c.076.179.16.355.225.538s.1.376.151.564l1.716-.591a1.66,1.66,0,0,1,.481.737c.384,1.119-.156,2.029-1.431,2.471-1.23.424-2.542.2-2.963-1.025a1.819,1.819,0,0,1,.249-1.707l-.035-.1a2.8,2.8,0,0,1-.811.049,3.7,3.7,0,0,0,.162,1.928c.581,1.7,1.972,2.715,3.8,2.086,1.721-.6,2.023-2.248,1.492-3.8"/>
    <path class="cls-1" d="M19.354,89.12c-.086-.175-.15-.36-.221-.541l-4.776,2.339c.1.168.205.333.29.508s.148.36.22.541l4.777-2.339c-.1-.169-.206-.333-.29-.508"/>
    <path class="cls-1" d="M20.113,90.681a1.472,1.472,0,0,1-.578.333,14.625,14.625,0,0,1,.989,1.5l-1.7.987-.4-.7A7.457,7.457,0,0,1,18,91.94a2.488,2.488,0,0,1-.268.2,2.478,2.478,0,0,1-.308.135,7.288,7.288,0,0,1,.536.792l.4.7-1.444.837A11.234,11.234,0,0,1,16.12,93a3.311,3.311,0,0,1-.269.2,2.882,2.882,0,0,1-.308.132L17.019,95.9l4.569-2.65Z"/>
    <path class="cls-1" d="M27.466,102.218a.814.814,0,0,1,1.151-.054.6.6,0,0,1,.062.062,1.052,1.052,0,0,1,.223,1.354l.111.1a7.169,7.169,0,0,1,.824-.583,2.375,2.375,0,0,0-.7-1.088,1.827,1.827,0,0,0-2.577-.189c-.031.027-.06.054-.089.082-1.187,1.325.693,2.763-.007,3.543a.721.721,0,0,1-1.01.126.75.75,0,0,1-.131-.133.93.93,0,0,1-.212-1.1l-.086-.078c-.234.146-.461.282-.7.405a2.029,2.029,0,0,0,.663,1.1,1.6,1.6,0,0,0,2.264.142,1.483,1.483,0,0,0,.153-.154c1.249-1.393-.767-2.608.063-3.534"/>
    <path class="cls-1" d="M32.144,104.666c-1.614,1.066-3.266,2-4.923,2.954a2.957,2.957,0,0,1,.3.2,2.514,2.514,0,0,1,.272.233c1.107-.778,2.279-1.5,3.465-2.2-.4,1.31-.743,2.641-1.214,3.9.188.122.389.245.568.381s.351.294.521.442c.477-1.849.974-3.676,1.541-5.517a1.8,1.8,0,0,1-.29-.171,2.2,2.2,0,0,1-.237-.226"/>
    <path class="cls-1" d="M44.332,111.522l-1.405,3.491-.451-1.14c-.467-1.189-.886-2.39-1.344-3.657l-.607-.255-1.991,4.947a2.122,2.122,0,0,1,.3.095,1.932,1.932,0,0,1,.277.138l1.359-3.376c.546,1.574,1.175,3.1,1.746,4.634l.71.29,1.986-4.935c-.1-.03-.2-.057-.3-.094s-.187-.095-.278-.138"/>
    <path class="cls-1" d="M55.578,114.1l-.586,3.719-.7-1.01c-.721-1.051-1.4-2.127-2.128-3.261l-.65-.111-.831,5.27a2,2,0,0,1,.309.027,1.979,1.979,0,0,1,.3.072l.567-3.6c.885,1.407,1.841,2.757,2.739,4.121l.758.121.828-5.256a2.9,2.9,0,0,1-.309-.025c-.1-.016-.2-.049-.3-.071"/>
    <path class="cls-1" d="M58.275,114.213c-.193-.011-.387-.046-.578-.07l-.279,5.33c.2-.007.39-.021.582-.009s.387.044.579.068l.278-5.33c-.193.007-.389.021-.582.011"/>
    <path class="cls-1" d="M71.057,112.919a2.47,2.47,0,0,1,.129.31,2.323,2.323,0,0,1,.055.332,14.683,14.683,0,0,1,1.69-.6l.542,1.9-.774.222a6.889,6.889,0,0,1-.934.2,2.24,2.24,0,0,1,.129.313,2.481,2.481,0,0,1,.054.331,6.988,6.988,0,0,1,.9-.331l.774-.224.459,1.608a10.69,10.69,0,0,1-1.75.391,1.464,1.464,0,0,1,.184.642l2.837-.817L73.9,112.1Z"/>
    <path class="cls-1" d="M77.132,110.9c-.179.074-.367.125-.551.183l.96,2.388-.755.306c-.287.116-.589.2-.9.29a1.486,1.486,0,0,1,.25.62,7.756,7.756,0,0,1,.842-.418l.762-.308.623,1.551a14.109,14.109,0,0,1-1.7.571,2.649,2.649,0,0,1,.159.3,2.373,2.373,0,0,1,.089.323l2.737-1.109-1.991-4.949c-.173.088-.344.183-.525.255"/>
    <path class="cls-1" d="M82.012,109.813a.822.822,0,0,1,.311-1.12q.035-.019.072-.036a1.039,1.039,0,0,1,1.35.2l.13-.074a7.107,7.107,0,0,1-.3-.967,2.34,2.34,0,0,0-1.247.336,1.842,1.842,0,0,0-.971,2.416c.014.033.029.065.045.1.887,1.543,2.83.192,3.353,1.1a.727.727,0,0,1-.2,1.009.7.7,0,0,1-.157.079.917.917,0,0,1-1.106-.14l-.1.06c.067.267.125.529.17.792a2.008,2.008,0,0,0,1.244-.292,1.618,1.618,0,0,0,.83-2.133,1.6,1.6,0,0,0-.093-.179c-.932-1.625-2.708-.074-3.328-1.152"/>
    <path class="cls-1" d="M86.057,105.9a1.941,1.941,0,0,1-.288.154c.511,1.872.885,3.738,1.278,5.618a2.527,2.527,0,0,1,.279-.226,2.918,2.918,0,0,1,.3-.185c-.393-1.3-.716-2.639-1.011-3.989,1.118.792,2.273,1.527,3.323,2.364.175-.142.352-.294.536-.424s.388-.245.58-.36c-1.605-1.026-3.181-2.067-4.749-3.176a2.321,2.321,0,0,1-.251.224"/>
    <path class="cls-1" d="M92.017,100.873c-.075.066-.167.127-.247.189l2.508,2.8-1.216-.091c-1.267-.1-2.528-.249-3.864-.391l-.495.436,3.555,3.966a2.185,2.185,0,0,1,.215-.226,2.267,2.267,0,0,1,.245-.191l-2.425-2.7c1.647.2,3.291.3,4.914.454l.571-.514-3.547-3.954c-.07.072-.14.159-.214.227"/>
    <path class="cls-1" d="M93.645,99.084c-.13.144-.276.274-.417.408l3.949,3.572c.117-.157.231-.315.36-.461s.276-.274.417-.408l-3.948-3.572c-.12.157-.232.317-.361.461"/>
    <path class="cls-1" d="M100.787,97.473a10.427,10.427,0,0,1-.78,1.22l-3.8-2.879c-.106.166-.2.335-.32.491s-.251.3-.381.442l3.806,2.878a11.913,11.913,0,0,1-.922,1.048,2.263,2.263,0,0,1,.289.171,2.1,2.1,0,0,1,.236.226l2.4-3.2a2.474,2.474,0,0,1-.282-.165,2.148,2.148,0,0,1-.244-.233"/>
    <path class="cls-1" d="M99.958,90.083c-.054.086-.121.172-.181.255l3.215,1.939-1.191.27c-1.242.278-2.491.5-3.81.761l-.345.562,4.554,2.748a2.332,2.332,0,0,1,.14-.278,2.382,2.382,0,0,1,.179-.255l-3.106-1.874c1.631-.3,3.235-.679,4.832-1.006l.395-.66-4.542-2.74c-.045.09-.089.191-.14.278"/>
    <path class="cls-1" d="M100.61,88.789a1.4,1.4,0,0,1,.607.271,14.46,14.46,0,0,1,.63-1.685l1.8.8-.327.74a7.131,7.131,0,0,1-.453.844,2.982,2.982,0,0,1,.321.1,2.387,2.387,0,0,1,.288.173,7.253,7.253,0,0,1,.325-.9l.329-.738,1.521.679a11.2,11.2,0,0,1-.829,1.6,2.025,2.025,0,0,1,.321.1,2.2,2.2,0,0,1,.288.17l1.2-2.707-4.82-2.154Z"/>
    <path class="cls-1" d="M102.217,85.08a2.477,2.477,0,0,1,.327.071,2.158,2.158,0,0,1,.3.147,16.539,16.539,0,0,1,.475-1.721l4.461,1.542c.047-.189.089-.381.153-.563s.147-.361.225-.54l-4.988-1.723Z"/>
    <path class="cls-1" d="M104.821,74.3a2.344,2.344,0,0,1-.089.318c1.7.93,3.292,1.956,4.911,2.978a2.533,2.533,0,0,1,.032-.358,2.757,2.757,0,0,1,.08-.349c-1.2-.616-2.388-1.318-3.562-2.039,1.343-.259,2.672-.583,4-.758.019-.224.034-.46.069-.682s.094-.45.145-.669c-1.853.445-3.69.861-5.574,1.224a2.2,2.2,0,0,1-.014.335"/>
    <path class="cls-1" d="M105.105,67.559c.026.193.058.386.07.58s0,.389-.01.585l5.308-.28c-.026-.193-.061-.385-.069-.581s0-.388.008-.583Z"/>
    <path class="cls-1" d="M104.917,63.8a1.968,1.968,0,0,1,.056.332,2,2,0,0,1-.021.328c1.854.557,3.626,1.228,5.421,1.888a2.643,2.643,0,0,1-.041-.355,2.529,2.529,0,0,1,0-.359c-1.307-.353-2.609-.79-3.906-1.252,1.26-.533,2.493-1.128,3.758-1.576-.027-.225-.063-.455-.074-.681s0-.46,0-.686c-1.719.823-3.43,1.614-5.2,2.361"/>
    <path class="cls-1" d="M98.222,44.468a1.453,1.453,0,0,1,.543-.383,14.667,14.667,0,0,1-1.113-1.41l1.611-1.133.463.663a7.351,7.351,0,0,1,.489.824,2.33,2.33,0,0,1,.251-.225,2.532,2.532,0,0,1,.294-.16,7.33,7.33,0,0,1-.605-.744l-.46-.662,1.363-.96A11.054,11.054,0,0,1,102,41.813a2.637,2.637,0,0,1,.25-.223,2.559,2.559,0,0,1,.3-.16L100.849,39l-4.32,3.039Z"/>
    <path class="cls-1" d="M88.338,33.314c.075.068.145.152.215.225l2.508-2.8.036,1.225c.033,1.277.018,2.55.018,3.9l.483.446,3.558-3.963a2.093,2.093,0,0,1-.247-.192,2.414,2.414,0,0,1-.216-.225l-2.425,2.7c.023-1.665-.048-3.318-.061-4.954l-.57-.515-3.545,3.954c.079.062.171.124.246.191"/>
    <path class="cls-1" d="M79.045,27.538c.121.053.238.095.356.154s.22.132.333.2c.191-.137.527-.368.812-.536l1.141-.674c.008.739.024,1.479.014,2.234.207.089.417.17.613.27s.389.225.582.341c.016-1.108-.039-2.15-.08-3.2l-.009-.2c.463-.244.918-.491,1.381-.734l1.148-.6a2.941,2.941,0,0,1-.355-.156,3.3,3.3,0,0,1-.329-.194c-.652.376-1.26.77-1.894,1.143,0-.7-.029-1.412,0-2.114-.215-.092-.425-.174-.633-.281s-.4-.228-.6-.346l.121,3.272c-.839.488-1.691.952-2.6,1.429"/>
    <path class="cls-1" d="M78.592,26.949a2.486,2.486,0,0,1,.163-.3,14.277,14.277,0,0,1-1.7-.572l.736-1.832.747.3a7.118,7.118,0,0,1,.859.422,2.423,2.423,0,0,1,.088-.324,2.573,2.573,0,0,1,.162-.3,6.947,6.947,0,0,1-.911-.292l-.746-.3.623-1.551a10.785,10.785,0,0,1,1.619.775,2.14,2.14,0,0,1,.089-.325,2.408,2.408,0,0,1,.159-.3l-2.734-1.109-1.977,4.91L78.5,27.274a2.783,2.783,0,0,1,.088-.325"/>
    <path class="cls-1" d="M74.832,25.326a2.491,2.491,0,0,1,.117-.316,16.679,16.679,0,0,1-1.747-.325l1.142-4.6c-.193-.032-.386-.057-.574-.1s-.37-.117-.555-.179l-1.275,5.14,2.849.712a2.17,2.17,0,0,1,.043-.332"/>
    <path class="cls-1" d="M59.9,120.8a52.053,52.053,0,1,1,51.839-52.266c0,.071,0,.142,0,.213A51.948,51.948,0,0,1,59.9,120.8m0-105.2a53.149,53.149,0,1,0,52.929,53.369c0-.074,0-.148,0-.221A53.039,53.039,0,0,0,59.9,15.6h0"/>
    <path class="cls-1" d="M69.022,20.284l.4,1.9-1.4-.224ZM66.954,23.9c.229-.506.494-.953.785-1.5l1.783.283c.125.548.2,1.1.29,1.692.225.021.443.032.664.067s.433.093.653.142L69.836,18.9a1.825,1.825,0,0,1-.3-.024,2.045,2.045,0,0,1-.288-.069l-3.028,4.976c.126.011.25.016.373.035s.234.054.356.08"/>
    <path class="cls-1" d="M87.469,27.931l-.536,1.863L85.8,28.937Zm-3.8,1.978c.1.074.183.157.278.238.439-.34.884-.607,1.4-.958l1.444,1.091c-.146.543-.333,1.063-.537,1.63.189.124.376.237.555.373s.34.285.508.434l1.515-5.624a1.975,1.975,0,0,1-.248-.16,1.8,1.8,0,0,1-.222-.2l-5,2.968c.1.068.212.13.31.2"/>
    <path class="cls-1" d="M97.47,35.551c.731.814.766,1.715-.317,2.694-1.347,1.218-2.287.969-3,.171l-.44-.491,3.253-2.941ZM92.6,37.359l1.451,1.619a2.656,2.656,0,0,0,3.732.434,2.6,2.6,0,0,0,.229-.2,2.3,2.3,0,0,0,.442-3.228,2.219,2.219,0,0,0-.16-.189l-1.773-1.977Z"/>
    <path class="cls-1" d="M103.517,43.922c.236.41.579.884.086,1.315a1.914,1.914,0,0,1-.317.228.977.977,0,0,1-1.567-.5Zm-4.5,1.932c.1.169.173.35.257.525l2.154-1.249.026.047c-.17.3-.37.664-.492.87l-.949,1.619c.13.194.266.385.383.586s.216.423.318.633l.265-.5c.392-.765.77-1.542,1.2-2.285a1.381,1.381,0,0,0,1.813.35,1.162,1.162,0,0,0,.622-1.142,3.172,3.172,0,0,0-.494-1.17L103.3,42.7,98.7,45.37c.111.159.227.315.325.484"/>
    <path class="cls-1" d="M106.92,51.183l.157.456c.132.382-.154.818-.74,1.021a.984.984,0,0,1-1.22-.31,2.628,2.628,0,0,1-.218-.469Zm-4.782,1.037c.064.183.1.374.153.564l2.2-.763c.454,1.325,1.061,2.184,2.365,1.734.827-.288,1.047-.981.7-2l-.622-1.811-5.025,1.739c.078.178.165.353.226.539"/>
    <path class="cls-1" d="M108.4,55.9l.107.47c.093.395-.238.8-.841.938a.984.984,0,0,1-1.181-.438,2.7,2.7,0,0,1-.169-.487Zm-4.863.528c.042.191.064.386.092.577l2.272-.526c.313,1.364.828,2.283,2.172,1.972.852-.2,1.144-.864.9-1.917l-.429-1.866-5.178,1.2c.059.186.126.37.17.559"/>
    <path class="cls-1" d="M106.255,78.551,107.83,79.7l-1.919.234Zm-1.722-1.585c-.031.12-.074.229-.11.348.482.274.9.578,1.423.919l-.435,1.758c-.555.077-1.105.108-1.7.142-.041.222-.07.44-.124.659s-.129.426-.2.64l5.747-.8a2.059,2.059,0,0,1,.049-.293,2.1,2.1,0,0,1,.093-.281L104.6,76.6c-.024.121-.037.246-.067.368"/>
    <path class="cls-1" d="M68.457,117.831a1.887,1.887,0,0,1-.1-.376.983.983,0,0,1,1-1.309l.36,2.055c-.464.083-1.026.243-1.261-.37m.991-4.536c-.191.035-.386.046-.579.064l.432,2.458-.054.01c-.22-.261-.494-.576-.644-.763l-1.192-1.448c-.225.056-.449.122-.68.161s-.469.059-.7.084l.382.424c.583.629,1.179,1.252,1.728,1.913a1.387,1.387,0,0,0-.948,1.588,1.158,1.158,0,0,0,.856.979,3.128,3.128,0,0,0,1.263-.066l1.625-.288-.923-5.254c-.188.048-.373.105-.565.138"/>
    <path class="cls-1" d="M63.449,118.985c-1.091.06-1.809-.479-1.886-1.94-.093-1.818.69-2.4,1.758-2.454l.657-.033.228,4.388Zm-.5-4.826a2.671,2.671,0,0,0-2.685,2.656,2.8,2.8,0,0,0,.015.29,2.29,2.29,0,0,0,2.2,2.375,2.565,2.565,0,0,0,.263-.005l2.645-.14-.275-5.289Z"/>
    <path class="cls-1" d="M47.535,116.57l-.232-1.925,1.376.345Zm2.376-3.421c-.274.486-.576.907-.914,1.43l-1.752-.438c-.076-.558-.107-1.109-.142-1.712-.221-.037-.438-.068-.656-.123s-.423-.13-.636-.2l.794,5.77a1.9,1.9,0,0,1,.291.05,1.521,1.521,0,0,1,.281.094l3.448-4.692c-.122-.022-.247-.039-.366-.068s-.231-.074-.348-.111"/>
    <path class="cls-1" d="M35.666,112.9l-.651-.393c-.936-.565-1.232-1.415-.481-2.668.933-1.559,1.905-1.6,2.823-1.047l.563.34Zm1.623-4.675a2.658,2.658,0,0,0-3.7.685,2.624,2.624,0,0,0-.157.259,2.3,2.3,0,0,0,.513,3.212,2.473,2.473,0,0,0,.212.137l2.271,1.37,2.718-4.54Z"/>
    <path class="cls-1" d="M20.765,100.294l-.468-.6c-.674-.864-.646-1.763.5-2.664,1.427-1.121,2.35-.806,3.007.039l.405.521Zm3.182-3.779a2.656,2.656,0,0,0-3.69-.7,2.621,2.621,0,0,0-.243.188,2.3,2.3,0,0,0-.669,3.186,2.432,2.432,0,0,0,.148.2l1.632,2.1,4.157-3.261Z"/>
    <path class="cls-1" d="M10.7,78.956c-.083-.467-.244-1.031.368-1.265a2.02,2.02,0,0,1,.374-.106.979.979,0,0,1,1.25.6.956.956,0,0,1,.052.411Zm4.884-.273c-.034-.191-.044-.386-.062-.582l-2.45.434-.01-.052c.261-.22.574-.5.759-.648l1.444-1.195c-.057-.229-.119-.454-.159-.684s-.061-.47-.086-.7l-.419.384c-.63.584-1.248,1.184-1.906,1.734a1.386,1.386,0,0,0-1.584-.951,1.153,1.153,0,0,0-.973.859,3.139,3.139,0,0,0,.064,1.269l.288,1.631,5.233-.927c-.05-.189-.106-.375-.139-.568"/>
    <path class="cls-1" d="M12.631,72.091l.074,1.422-1.84-.637Zm2.226,2.8c-.016-.124-.037-.246-.043-.371s0-.243,0-.366c-.541-.119-1.032-.288-1.629-.46l-.1-1.809c.507-.239,1.024-.429,1.588-.638-.028-.224-.063-.44-.074-.665s0-.444,0-.671L9.348,72.365a1.824,1.824,0,0,1,.039.293,1.843,1.843,0,0,1-.009.3Z"/>
    <path class="cls-1" d="M11.843,65.749,9.772,65.6c.034-.473.011-1.06.662-1.138a1.817,1.817,0,0,1,.39-.012.981.981,0,0,1,1.019,1.3m2.734.777c.014-.194.052-.386.08-.579l-2.481-.175,0-.054c.305-.15.674-.341.892-.443l1.687-.811c0-.232-.006-.468.011-.7s.055-.473.087-.7l-.5.27c-.751.413-1.495.846-2.267,1.221a1.384,1.384,0,0,0-1.306-1.309,1.154,1.154,0,0,0-1.152.6,3.112,3.112,0,0,0-.242,1.245l-.115,1.654,5.3.372c0-.2-.01-.391,0-.585"/>
    <path class="cls-1" d="M16.211,46.013l1.921.206-.643,1.269Zm2.6,3.408c.056-.11.122-.208.186-.315-.41-.375-.75-.767-1.183-1.216l.82-1.614c.556.049,1.1.143,1.692.247.088-.21.165-.415.267-.616s.222-.384.337-.577l-5.778-.521a1.816,1.816,0,0,1-.113.274,1.919,1.919,0,0,1-.154.253l3.779,4.429c.047-.115.09-.233.147-.344"/>
    <path class="cls-1" d="M18.215,40.678c.285-.379.585-.883,1.173-.593a1.827,1.827,0,0,1,.332.2.983.983,0,0,1,.153,1.643Zm3.529,3.4c.117-.157.253-.3.381-.442l-1.987-1.5.033-.043c.339.041.753.081.991.116l1.853.243c.128-.2.249-.4.389-.582s.3-.367.456-.544l-.566-.047c-.855-.062-1.714-.108-2.564-.217a1.389,1.389,0,0,0-.387-1.81,1.155,1.155,0,0,0-1.29-.13,3.11,3.11,0,0,0-.878.914l-.994,1.322,4.244,3.211c.105-.164.2-.333.319-.488"/>
    <path class="cls-1" d="M22.33,36.866l1.8.7-.948,1.058Zm1.633,3.967c.083-.093.173-.168.262-.256-.3-.468-.527-.936-.831-1.482L24.6,37.748c.526.193,1.025.426,1.572.678.138-.179.265-.356.415-.523s.313-.315.475-.472l-5.447-2a2.032,2.032,0,0,1-.18.235,1.8,1.8,0,0,1-.215.2l2.508,5.26c.077-.1.148-.2.232-.293"/>
    <path class="cls-1" d="M31.19,27.352c.95-.67,1.989.006,2.563.827.737,1.058.983,2.347.006,3.034-.95.67-1.94.053-2.517-.775-.994-1.426-.935-2.466-.052-3.086m2.8,4.266A2.838,2.838,0,0,0,35,27.732c-.035-.058-.071-.116-.109-.171a2.619,2.619,0,0,0-3.6-.856,2.542,2.542,0,0,0-.326.238,2.8,2.8,0,0,0-1.048,3.821,2.635,2.635,0,0,0,.147.23,2.608,2.608,0,0,0,3.933.624"/>
    <path class="cls-1" d="M59.9,111.894A43.146,43.146,0,1,1,102.866,68.57c0,.059,0,.118,0,.178A43.058,43.058,0,0,1,59.9,111.894m44.059-43.146A44.059,44.059,0,1,0,59.9,112.989a44.059,44.059,0,0,0,44.059-44.241"/>
    <path class="cls-1" d="M72.625,48.84l3.411,3.425-3.411,3.424ZM69.116,59.212l-3.281,3.295V42.021l3.281,3.294Zm-5.777-20.7a10.031,10.031,0,0,0,3.978-1.488c.126.056.251.112.371.17a7.468,7.468,0,0,1-3.8,1.873Zm-2.8-2.812-2.37,2.38A10.268,10.268,0,0,1,54.387,36.8a17.625,17.625,0,0,1,12.394,0,10.384,10.384,0,0,1-3.859,1.29ZM62.325,66.03l-1.783,1.791L58.759,66.03V38.5l1.783-1.791L62.325,38.5ZM57.183,39.069a7.526,7.526,0,0,1-3.777-1.844c.144-.071.293-.138.444-.2a9.919,9.919,0,0,0,3.9,1.478Zm-4.11-3.428a13.956,13.956,0,0,1,3.2-1.088l-.129.227a.478.478,0,0,0,.173.651l.328.189a16.327,16.327,0,0,0-3.087,1l.074-.141a.484.484,0,0,0-.2-.652Zm4.4-1.209-.136-.078a20.5,20.5,0,0,1,2.547-.235l-.164.2a.479.479,0,0,0,.06.67l.257.218a18.437,18.437,0,0,0-2.61.264l.22-.383a.478.478,0,0,0-.174-.651M61.1,34.2l-.106-.091a20.683,20.683,0,0,1,2.789.246l-.069.04a.476.476,0,0,0-.173.65l.244.425a18.475,18.475,0,0,0-2.893-.279l.268-.32a.479.479,0,0,0-.06-.671m-8.3.643-.043-.112a15.848,15.848,0,0,0-3.433-3.058,7.154,7.154,0,0,0,1.016.2,2.726,2.726,0,0,0,.592.014c0-.086,0-.174,0-.242,0-.04.055-.662.35-.84.427-.257,1.435-.347,1.433.383l-.1.008a2.183,2.183,0,0,0-.256.032c-1.088.223-.2,2.294,1.1,2.213a2.381,2.381,0,0,0,2.064-1.53,3.372,3.372,0,0,0,.2-.739.945.945,0,1,1,.758-.105l-.119.086s.1.218.129.3a2.184,2.184,0,0,0,1.766,1.5c2.141.055,2.064-3.091.054-3.177a1.326,1.326,0,0,1,1.357-.972l.16.022a7.364,7.364,0,0,1,.749-1.856,8.325,8.325,0,0,1,.679,1.856l.161-.022a1.326,1.326,0,0,1,1.357.972c-2.01.086-2.086,3.232.054,3.177a2.181,2.181,0,0,0,1.765-1.5c.031-.081.131-.3.131-.3L64.6,31.07a.942.942,0,1,1,.759.105,3.433,3.433,0,0,0,.2.739,2.38,2.38,0,0,0,2.063,1.53c1.307.081,2.191-1.99,1.105-2.213a2.027,2.027,0,0,0-.257-.032l-.1-.008c0-.73,1.007-.64,1.432-.383.295.178.348.8.351.84l.02.194a.994.994,0,0,0,.162.026s.217.016.41.008a4.253,4.253,0,0,0,.833-.116,14.576,14.576,0,0,0-3.251,2.975l-.043.112-.043.377a17.7,17.7,0,0,0-7.7-1.59,17.69,17.69,0,0,0-7.7,1.59Zm14.562,1.672a16.649,16.649,0,0,0-2.869-.9l.378-.219a.476.476,0,0,0,.174-.649v0l-.093-.161a14.023,14.023,0,0,1,2.917.987l-.387.264a.49.49,0,0,0-.121.681l0,0M55.249,62.507l-3.281-3.295v-13.9l3.281-3.294Zm-6.79-6.818-3.41-3.424,3.41-3.425ZM64.29,39.465a6.975,6.975,0,0,0,4.025-2.292.257.257,0,0,0,.049-.147l.353-.239a.485.485,0,0,0,.127-.672l-.2-.3a.253.253,0,0,0,.021-.076l.086-.77a18.986,18.986,0,0,1,4.305-3.7l-.223-.416s-.766.295-1.313.437a3.821,3.821,0,0,1-.916.117,1.406,1.406,0,0,0-.553-1c-.935-.563-2.406-.2-2.123,1.071l.056.241a2.53,2.53,0,0,1,.451-.041,1.157,1.157,0,0,1,.261.037c.267.215-.342,1.3-1.041,1.261a2.067,2.067,0,0,1-1.775-1.516,1.416,1.416,0,1,0-1.961-.408,1.434,1.434,0,0,0,.226.266c-.014.03-.038.085-.074.155a1.615,1.615,0,0,1-1.252,1.009,1.106,1.106,0,1,1-.024-2.212h.029a1.955,1.955,0,0,1,.59.2l-.089-.472a2.008,2.008,0,0,0-.068-.275,1.807,1.807,0,0,0-1.694-1.39,6.634,6.634,0,0,0-1.006-2.152,9.475,9.475,0,0,0-1.027,2.152,1.807,1.807,0,0,0-1.694,1.39,2,2,0,0,0-.067.275l-.091.472a1.966,1.966,0,0,1,.592-.2,1.106,1.106,0,1,1,.033,2.212h-.03a1.61,1.61,0,0,1-1.251-1.009c-.035-.07-.061-.125-.073-.155a1.416,1.416,0,1,0-2-.081,1.444,1.444,0,0,0,.263.223,2.066,2.066,0,0,1-1.774,1.516c-.7.043-1.308-1.046-1.041-1.261a1.149,1.149,0,0,1,.261-.037,1.957,1.957,0,0,1,.444.063l.063-.263c.282-1.27-1.189-1.634-2.123-1.071a1.4,1.4,0,0,0-.553,1,3.835,3.835,0,0,1-.917-.117c-.546-.142-1.312-.437-1.312-.437l-.223.415a19.016,19.016,0,0,1,4.305,3.7l.078.7a.489.489,0,0,0-.09.121l-.235.442a.484.484,0,0,0,.2.653l.468.25a.28.28,0,0,0,.049.118,7.1,7.1,0,0,0,3.978,2.218L44.043,52.263l16.5,16.567,16.5-16.564Z"/>
    <rect class="cls-1" x="79.779" y="79.925" width="0.234" height="1.056"/>
    <rect class="cls-1" x="77.194" y="79.925" width="0.232" height="1.056"/>
    <rect class="cls-1" x="78.428" y="78.047" width="0.321" height="1.465"/>
    <rect class="cls-1" x="74.096" y="72.981" width="0.232" height="1.056"/>
    <rect class="cls-1" x="71.506" y="72.981" width="0.234" height="1.056"/>
    <path class="cls-1" d="M70.687,66.886l-.094.03a.312.312,0,0,0,.006.6.492.492,0,0,0-.092.073l-.377.378a.517.517,0,0,0,0,.728l.377.379a.513.513,0,0,0,.238.136l-.4.121H69.9s-.014,11.719-.014,18.942c0,3.312.342,4.477,2.187,6.608a20.622,20.622,0,0,0,5.9,4.373,10.948,10.948,0,0,0,3.266,1.078c1.971,0,6.086-2.822,7.493-4.065a15.02,15.02,0,0,0,3.114-3.83l.029-.047a10.947,10.947,0,0,0,.415-1.095,3.561,3.561,0,0,0,.163-.722h.01l-.021-21.242h-.318l-.284-.122a.514.514,0,0,0,.252-.138l.377-.38a.517.517,0,0,0,0-.728l-.377-.379a.453.453,0,0,0-.123-.09.313.313,0,0,0,.013-.586l-.423-.143a31.581,31.581,0,0,0-9.976-1.493,39.765,39.765,0,0,0-10.512,1.5ZM91.848,90.57H86.582v-.5l0,.19V83.581h5.256Zm-.971,2.283a14.745,14.745,0,0,1-1.267,1.656v-.327a.364.364,0,0,0-.322-.2.712.712,0,0,0-.431.2V95.3q-.256.257-.531.5c-.261.23-.646.537-1.1.874h-.074v-.66h.444V92h.66v.983h.324V90.926h1.3v2.057h.354V92h.646Zm-4.3-9.526H86.2V69.946h.377Zm-4.252,10A6.236,6.236,0,0,1,81.3,90.587h5.246v6.572l-.276.189A11.893,11.893,0,0,1,85.15,96.5a18.112,18.112,0,0,1-2.828-3.179M81.241,99.71a10.8,10.8,0,0,1-3.01-1.021,17.74,17.74,0,0,1-2.1-1.259C78.195,96.2,80.711,93.6,81.212,91.2a11.2,11.2,0,0,0,3.443,5.1.6.6,0,0,0,.257.23,11.914,11.914,0,0,0,1.2.922c-1.669,1.115-3.736,2.259-4.872,2.259m-5.353-2.444.47-1.166v.985c-.131.086-.259.169-.383.243Zm1.683-4.178v3.081c-.2.165-.393.323-.585.469v-2.1Zm-1.757-8.973L78.4,90.591,75.814,97Zm.534-.5V85l-.534-1.338v-.052Zm2.415,7.9V95.04c-.184.195-.373.383-.566.566V91.531l.289-.716Zm-.568-7.9H78.8v5.968l-.314.779-.3-.74Zm1.831,0v2.935l-.6,1.5c-.006-.742,0-4.013,0-4.439Zm1,0v.45l-.387.957c0-.361.014-1.2.016-1.407Zm-3.442,0v4.495l-.623-1.562c0-.547,0-2.6,0-2.933Zm-1.068-.643v-.66h.443V78.294h.663v.985h.322V77.221h1.3v2.058H79.6v-.985h.646v4.014h.43v.66h-1.7v-2.49a.361.361,0,0,0-.322-.2.7.7,0,0,0-.43.2v2.49Zm3.2,10.937c-.1.133-.2.265-.308.4V93.133ZM78.58,90.584,81.123,84.2v6.39a6.1,6.1,0,0,1-1.283,3.155Zm-7.307-15.22V71.35h.664v.984h.323V70.275h1.3v2.059h.353V71.35h.643v4.014h.432v.66h-1.7V73.535a.363.363,0,0,0-.323-.2.7.7,0,0,0-.429.2v2.489h-1.71v-.66Zm4.18-7.792.379.378a.539.539,0,0,0,.082.068,36.284,36.284,0,0,0-4.663,1.038l.36-.363a.518.518,0,0,0,0-.728l-.378-.378a.49.49,0,0,0-.259-.14,35.734,35.734,0,0,1,5-1.085.533.533,0,0,0-.143.1l-.379.378a.521.521,0,0,0,0,.73m6.311,15.755h-.409V69.946h.409Zm3.177-13.381h.588V83.327h-.588Zm-1.253,0h.585V83.327h-.585Zm-1.255,0h.586V83.327h-.586Zm1.494,17.216a.706.706,0,0,0-.431.2V89.85H81.787v-.662h.442V85.177h.665v.983h.321V84.1h1.3V86.16h.354v-.983h.644v4.011h.43v.662h-1.7V87.361a.361.361,0,0,0-.322-.2m7.442-19.581-.377.379a.515.515,0,0,0,0,.727h0l.3.306a26.287,26.287,0,0,0-4.266-1.033.691.691,0,0,0,.057-.051l.378-.377a.519.519,0,0,0,0-.73l-.378-.378a.515.515,0,0,0-.175-.116,27.6,27.6,0,0,1,4.726,1.13.5.5,0,0,0-.269.142m.172,3.317v-.952h.286v.234Zm-1.236,3.086V69.946h.635V72.4Zm-1.16,3.353.217-.545.332.829v5.706h-.549Zm0-1.542V69.946h.549v5.567l-.332.828ZM87.9,72.679V69.946h.634v4.319Zm-1.093-2.733H87.3v1.227ZM87.3,81.952v1.375h-.551Zm1.235-3.088v4.463H87.9v-2.88ZM86.74,82.893l.011-12.654,2.521,6.328Zm4.2-2.162v2.6h-.635V79.148Zm.9,2.6h-.3V82.236l.3.75Zm-2.389-6.76,2.375-5.938.014,11.9Zm-3.469-9.034.306.307a39.952,39.952,0,0,0-4.988-.233c.016-.014.034-.028.049-.043l.376-.377a.52.52,0,0,0,0-.731l-.376-.378a.5.5,0,0,0-.261-.139c.169,0,.337,0,.5,0a35.929,35.929,0,0,1,5.087.341.519.519,0,0,0-.32.15l-.378.378a.519.519,0,0,0,0,.73m-4.972.692a38,38,0,0,1,5.469.269,32.279,32.279,0,0,1,3.853.834H72.623a34.564,34.564,0,0,1,8.388-1.1m-.763-1.038.377.377a.535.535,0,0,0,.05.045,33.086,33.086,0,0,0-4.087.311l.346-.348a.519.519,0,0,0,0-.73l-.377-.378a.528.528,0,0,0-.283-.145,39.193,39.193,0,0,1,4.59-.376.493.493,0,0,0-.239.135l-.377.378a.518.518,0,0,0,0,.731M75.73,83.327H70.506l.006-6.79h5.219V69.946H81.19v6.608H75.73ZM75.647,97.1c-.167-.119-.338-.245-.508-.372V83.611h.475l.033.083Zm-1.163-.886c-.2-.163-.4-.33-.594-.5v-12.1h.594ZM73.236,95.1c-.2-.2-.393-.4-.574-.607V83.611h.574Zm-1.23-1.409a8.006,8.006,0,0,1-.572-.9V83.611h.572Zm-1.228-2.607a12.458,12.458,0,0,1-.273-2.927V83.611h.272Z"/>
    <rect class="cls-1" x="72.74" y="71.104" width="0.323" height="1.465"/>
    <rect class="cls-1" x="85.049" y="86.808" width="0.232" height="1.055"/>
    <rect class="cls-1" x="82.464" y="86.808" width="0.232" height="1.055"/>
    <rect class="cls-1" x="83.696" y="84.93" width="0.323" height="1.465"/>
    <path class="cls-1" d="M49.724,75.868h-10.2V70.66h10.2Zm0,9.392h-10.2V80.1h10.2Zm-.274,6.575a9.156,9.156,0,0,1-2.018,3.5H39.527V90.257H49.693a7.522,7.522,0,0,1-.243,1.578M39.188,69.991H34.514c.381-.087.775-.172,1-.2a29.93,29.93,0,0,1,4.009-.379,27.675,27.675,0,0,1,4.022.378c.387.063.746.137,1.05.2Zm-.464,2.524H37.11a.413.413,0,0,1,0-.111,6.38,6.38,0,0,1,.485-.579,4.1,4.1,0,0,1-.322-.362.65.65,0,0,1-.085-.328c.007-.1-.016-.377.7-.373s.747.24.742.4a1.189,1.189,0,0,1-.384.659l.481.586Zm0,10.775H37.11a.405.405,0,0,1,0-.11A6.246,6.246,0,0,1,37.6,82.6a3.97,3.97,0,0,1-.322-.364.639.639,0,0,1-.085-.325c.007-.1-.016-.38.7-.374s.747.241.742.405a1.2,1.2,0,0,1-.384.658l.481.584Zm0,15.833H37.11a.4.4,0,0,1,0-.109,6.1,6.1,0,0,1,.485-.58,3.842,3.842,0,0,1-.322-.364.639.639,0,0,1-.085-.325c.007-.1-.016-.378.7-.374s.747.24.742.405a1.2,1.2,0,0,1-.384.658l.481.584Zm-6.057-13.1,3.713,3.732V90.5l-4.454-4.473-.816,0c0-5.105.008-13.019.008-13.019H36.38l0,12.737v.287h-.551l.549.552v.751l-1.3-1.3-.834,0,2.131,2.131v.755l-2.875-2.889Zm3.713,6.06-5.27-5.294v-.743l5.27,5.293Zm0,1.584-5.27-5.293v-.744l5.27,5.292Zm0,1.586-5.264-5.287,0-.748,5.268,5.29Zm-3.09-1.625a8.186,8.186,0,0,1-2.022-2.668l4.2,4.215a9.276,9.276,0,0,1-2.176-1.547m-.65,1.886H31.025a.383.383,0,0,1,0-.107,6.14,6.14,0,0,1,.486-.582,3.784,3.784,0,0,1-.321-.36.669.669,0,0,1-.087-.327c.009-.1-.015-.378.7-.376s.745.244.739.407a1.182,1.182,0,0,1-.383.656l.481.586ZM32.931,72.4a6.1,6.1,0,0,1,.486-.579,3.957,3.957,0,0,1-.323-.362.64.64,0,0,1-.085-.328c.008-.1-.015-.377.7-.373s.745.24.74.4a1.184,1.184,0,0,1-.383.659l.481.585v.105H32.931a.413.413,0,0,1,0-.111m-.647-4.689a.7.7,0,0,1,.4-.27c.555-.131,1.015.355,1.309.734a3.673,3.673,0,0,1,.395-1.1c.224-.367.388-.429.727-.088a.889.889,0,0,0-.655.964c.052.5.244.836.785.788A1.571,1.571,0,0,0,36.523,67.4a.693.693,0,0,0,.091-.016,1.664,1.664,0,0,0,1.368,1.108c1.4.041,1.745-1.975-.21-1.9l-.071.005a1,1,0,0,1,.83-.468c.159-.021.449-.039.449-.039a2.477,2.477,0,0,1,.128-.854,1.87,1.87,0,0,1,.427-.506,1.808,1.808,0,0,1,.428.506,2.5,2.5,0,0,1,.128.854s.291.018.448.039a1.007,1.007,0,0,1,.831.468l-.071-.005c-1.955-.076-1.607,1.94-.21,1.9a1.659,1.659,0,0,0,1.366-1.108.754.754,0,0,0,.093.016,1.569,1.569,0,0,0,1.274,1.344c.541.048.733-.287.786-.788a.962.962,0,0,0-.626-.994c.31-.311.474-.249.7.118a3.736,3.736,0,0,1,.394,1.1c.294-.379.753-.865,1.306-.734a.7.7,0,0,1,.405.27,3.372,3.372,0,0,0-1.429,2.05c-.275-.068-.875-.207-1.674-.348a25.013,25.013,0,0,0-3.967-.386h-.364a24.988,24.988,0,0,0-3.965.386c-.8.141-1.4.28-1.673.348a3.37,3.37,0,0,0-1.43-2.05m4.532-1.084a.389.389,0,1,1-.389-.391.389.389,0,0,1,.389.391h0m5.827.389a.39.39,0,1,1,.388-.392v0a.389.389,0,0,1-.388.389m1.588.891c-.031.294-.067.476-.374.448a1.214,1.214,0,0,1-.936-1.01.766.766,0,1,0-.993-.436.78.78,0,0,0,.185.276,1.187,1.187,0,0,1-.063.182,1.273,1.273,0,0,1-.972.735c-.343.009-.775-.258-.768-.555.013-.616.863-.659,1.288-.526l.3.092c-.181-.986-.529-1.289-1.455-1.387a1.567,1.567,0,0,0-.145-.674,1.426,1.426,0,0,0-.591-.638,1.509,1.509,0,0,0-.173-.067,1.212,1.212,0,0,0-.173.067,1.431,1.431,0,0,0-.591.638,1.567,1.567,0,0,0-.145.674c-.926.1-1.273.4-1.454,1.387l.3-.092c.425-.133,1.273-.09,1.289.526.007.3-.426.564-.769.555a1.273,1.273,0,0,1-.971-.735,1.187,1.187,0,0,1-.063-.182.769.769,0,1,0-.809.16,1.213,1.213,0,0,1-.935,1.01c-.307.028-.342-.154-.375-.448-.063-.594.613-.613.981-.631l-.215-.289c-.757-1.013-1.385-.7-1.789.414a1.89,1.89,0,0,0-.493-.264,3.327,3.327,0,0,1-.259-1.72,3.537,3.537,0,0,0,.078-.578,22.838,22.838,0,0,1,6.385-.907,23.1,23.1,0,0,1,4.861.539c.681.15,1.215.3,1.555.4a3.36,3.36,0,0,0,.08.591,3.424,3.424,0,0,1-.23,1.66,1.823,1.823,0,0,0-.538.278c-.4-1.116-1.032-1.427-1.79-.414l-.215.289c.368.018,1.043.037.981.631M32.687,62.952A3.116,3.116,0,0,0,32,62.41l-.073-.045c.46-.235.89-.362,1.264.149l.323-.026a2.125,2.125,0,0,1,.169-.282c.411-.413.817.086.582.292A.93.93,0,0,0,34,62.9a1,1,0,0,0-.052.223l0,.035a.739.739,0,0,0,1.425.232.612.612,0,0,0,.47.1.761.761,0,0,0,.669-.842c0-.031-.01-.062-.017-.093a.689.689,0,0,0-.771-.595.656.656,0,0,0-.157.039c.144-.28.372-.338.653-.437l-.039-.18a1.119,1.119,0,0,1,.108-.778,1.1,1.1,0,0,1,.365.694l.026.184a.943.943,0,0,1,.763.186.689.689,0,0,0-.7.68.664.664,0,0,0,.016.16.757.757,0,0,0,.832.672.8.8,0,0,0,.1-.017.612.612,0,0,0,.43-.243.652.652,0,0,0,.471.2.759.759,0,0,0,.8-.71.8.8,0,0,0,0-.1.69.69,0,0,0-.658-.72.706.706,0,0,0-.159.012.945.945,0,0,1,.72-.317l-.009-.184a1.121,1.121,0,0,1,.24-.747,1.11,1.11,0,0,1,.242.747l-.009.184a.95.95,0,0,1,.72.317.688.688,0,0,0-.806.548.663.663,0,0,0-.011.16.759.759,0,0,0,.707.808.785.785,0,0,0,.1,0,.65.65,0,0,0,.467-.193.628.628,0,0,0,.455.288.759.759,0,0,0,.915-.561.738.738,0,0,0,.016-.094.692.692,0,0,0-.527-.826.677.677,0,0,0-.156-.016.948.948,0,0,1,.764-.184l.024-.185a1.115,1.115,0,0,1,.366-.694,1.111,1.111,0,0,1,.107.777l-.039.182c.281.1.509.157.655.436a.692.692,0,0,0-.892.4.723.723,0,0,0-.038.154.757.757,0,0,0,.653.934.613.613,0,0,0,.47-.1.737.737,0,0,0,1.423-.233v-.035a1.131,1.131,0,0,0-.053-.223.955.955,0,0,0-.258-.405c-.236-.207.169-.707.583-.292a2.231,2.231,0,0,1,.168.282l.321.025c.377-.511.8-.383,1.265-.149l-.074.044A3.219,3.219,0,0,0,46.4,63a1.845,1.845,0,0,0-.464.927c0,.177,0,.362,0,.55a23.525,23.525,0,0,0-6.405-.919,23.767,23.767,0,0,0-6.374.892c0-.194,0-.387,0-.57a1.842,1.842,0,0,0-.464-.926m2.131-2.777a3.25,3.25,0,0,1,.272-.266l.04-.373a14.883,14.883,0,0,1,4.4-.633,15.833,15.833,0,0,1,3.234.331,11.267,11.267,0,0,1,1.168.306c.019.2.037.369.037.369a4.132,4.132,0,0,1,1.12,1.8c-.542.028-1,.689-.513,1.12a.635.635,0,0,1,.181.367l-.006.033a.353.353,0,0,1-.7-.038l0-.215-.4-.061a.309.309,0,0,1-.014.043.275.275,0,0,1-.323.2.385.385,0,0,1-.362-.4.405.405,0,0,1,.016-.09.439.439,0,0,1,.552-.282.428.428,0,0,1,.126.064,1.707,1.707,0,0,1,.275.307c.055-.633.069-1.049-.539-1.375l-.078-.04a1.331,1.331,0,0,0-.336-1.08l-.083-.062-.11.028a1.325,1.325,0,0,0-.683.9L42,61.141c-.681.1-.816.526-.98,1.139a1.377,1.377,0,0,1,.368-.234c.231-.074.619.13.562.446a.38.38,0,0,1-.4.361.394.394,0,0,1-.091-.016.275.275,0,0,1-.235-.3c0-.029,0-.048,0-.048l-.253-.058-.21,0a.184.184,0,0,1-.006.047.277.277,0,0,1-.284.255.382.382,0,0,1-.426-.331.378.378,0,0,1,0-.095c0-.321.418-.454.632-.339a1.55,1.55,0,0,1,.322.26c-.055-.631-.114-1.045-.768-1.26l-.085-.024a1.325,1.325,0,0,0-.516-1.006l-.1-.047-.094.047a1.324,1.324,0,0,0-.515,1.006l-.084.024c-.656.215-.714.629-.769,1.26a1.757,1.757,0,0,1,.322-.254c.214-.114.631.012.631.333a.382.382,0,0,1-.332.426.362.362,0,0,1-.093,0,.277.277,0,0,1-.284-.255c0-.015-.006-.031-.008-.047l-.222,0-.216.01v.047a.278.278,0,0,1-.236.3.38.38,0,0,1-.475-.254.362.362,0,0,1-.016-.092c-.057-.318.33-.52.562-.445a1.345,1.345,0,0,1,.366.232c-.162-.612-.3-1.04-.978-1.137L37,61.082a1.327,1.327,0,0,0-.683-.9l-.109-.028-.083.062a1.325,1.325,0,0,0-.336,1.08l-.077.04c-.609.325-.595.743-.54,1.375a1.661,1.661,0,0,1,.275-.305.437.437,0,0,1,.612.089.445.445,0,0,1,.066.128.384.384,0,0,1-.258.478.37.37,0,0,1-.087.016.279.279,0,0,1-.325-.2.225.225,0,0,1-.014-.044l-.4.062,0,.213a.353.353,0,0,1-.7.04l-.006-.033a.635.635,0,0,1,.181-.367c.5-.436.019-1.1-.528-1.121a4.491,4.491,0,0,1,.833-1.489M34,57.432a.456.456,0,0,1,.376-.162.826.826,0,0,1,.607.269c.021.024.274.38.274.38.049-.2.29-1.382.716-1.068l.045.031a.841.841,0,0,0-.454.8c-.028.944,1.332.856,1.637-.25l.133-.012a1.122,1.122,0,0,0,1,.691c.8,0,.936-.515.936-.769,0-.629-.6-.822-1.105-.777a.953.953,0,0,1,.679-.3c.074-.005.329.013.329.013a1.137,1.137,0,0,1,.348-1.042,1.133,1.133,0,0,1,.35,1.042,1.112,1.112,0,0,1,1.006.283c-.508-.045-1.1.148-1.1.777,0,.254.135.769.935.769a1.121,1.121,0,0,0,1.006-.691l.016-.034.113.038a1.141,1.141,0,0,0,.727.845c1.176.344,1.1-1.13.46-1.382l.046-.031c.28-.207.477.265.553.473.04.109.16.595.16.595.243-.34.4-.649.883-.649a.447.447,0,0,1,.374.162,2.7,2.7,0,0,0-.619.354c-.627.494-.586.675-.537,1.34a16.035,16.035,0,0,0-8.728,0,4.22,4.22,0,0,0,.005-.6c-.031-.476-.77-.939-1.171-1.1m2.309-.221.429-.009a.584.584,0,0,0,.107.059c-.194.726-.916.911-.9.427.009-.281.109-.477.367-.477m.8-.818a.273.273,0,1,1-.271.274h0a.271.271,0,0,1,.27-.273h0m1.785.944c0,.1-.022.387-.557.387-.414,0-.6-.312-.732-.635l.033-.041.243-.059c.312-.075,1.013-.152,1.013.348m2.549-.248c-.133.323-.317.635-.732.635-.533,0-.554-.283-.554-.387a.452.452,0,0,1,.243-.359,1.893,1.893,0,0,1,1.012.07Zm-1.89-2.378a2.38,2.38,0,0,1,2.164,1.34.65.65,0,0,0-.418.5,1.122,1.122,0,0,0-1.051-.667,1.254,1.254,0,0,0-.537-.981,1.048,1.048,0,0,0-.187-.084,1.167,1.167,0,0,0-.723,1.065,1.12,1.12,0,0,0-1.05.667.653.653,0,0,0-.372-.481,2.377,2.377,0,0,1,2.174-1.359m-.027-1.06a.3.3,0,1,1-.3.3h0a.3.3,0,0,1,.293-.3h0m2.415,2.742a.273.273,0,1,1-.272.273h0a.27.27,0,0,1,.268-.273h0m.374.818h.426c.257,0,.359.2.366.477.015.484-.708.3-.9-.427a.584.584,0,0,0,.107-.059Zm-12.247,15.3H28.456a.515.515,0,0,1,0-.111,6.38,6.38,0,0,1,.485-.579,3.935,3.935,0,0,1-.321-.362.651.651,0,0,1-.086-.328c.007-.1-.014-.377.7-.373s.745.24.741.4a1.2,1.2,0,0,1-.385.659l.482.586ZM30,83.29H28.388a.673.673,0,0,1,0-.11,6.1,6.1,0,0,1,.486-.579,3.7,3.7,0,0,1-.321-.364.641.641,0,0,1-.087-.325c.009-.1-.014-.38.7-.374s.744.241.74.405a1.2,1.2,0,0,1-.384.658l.481.584ZM30,91.4H28.617l-.06-.331c.14-.165.317-.358.317-.358a3.935,3.935,0,0,1-.321-.362.661.661,0,0,1-.087-.327c.009-.1-.014-.379.7-.375s.744.243.74.406a1.186,1.186,0,0,1-.384.658l.481.584ZM46.124,68.921a2.321,2.321,0,0,1,1.187-1.042,1.231,1.231,0,0,0-.841-.8.879.879,0,0,0-.239-.024,4.533,4.533,0,0,0,.134-2.038.191.191,0,0,0,.127-.36s-.058-.021-.168-.057l0-.053c-.01-.317-.008-.6-.008-.618a2.031,2.031,0,0,1,.369-.675,5.494,5.494,0,0,1,1.2-.839l-.248-.2a1.891,1.891,0,0,1-.23-.1c-.569-.279-1.082-.481-1.624.019L45.76,62.1a.9.9,0,0,0-.3-.294l.045-.012a4.736,4.736,0,0,0-1.179-2.068,10.763,10.763,0,0,1-.07-1.19,1.872,1.872,0,0,1,.889-.723c.134-.057.4-.132.4-.132-.108-.457-.321-.789-.872-.789a1.181,1.181,0,0,0-.71.234c-.4-1-.8-.738-1.374-.456a.655.655,0,0,0-.436-.619.236.236,0,0,0-.02-.108,2.788,2.788,0,0,0-2-1.6.71.71,0,0,0,.114-.39.727.727,0,0,0-.507-.694v-.4h.6a.214.214,0,0,0,0-.428h-.606V51.72a.213.213,0,1,0-.426,0h0v.709h-.6a.214.214,0,0,0,0,.428h.6v.4a.726.726,0,0,0-.51.7.747.747,0,0,0,.119.4,2.779,2.779,0,0,0-1.993,1.685.662.662,0,0,0-.473.643c-.57-.3-.973-.553-1.372.443a1.179,1.179,0,0,0-.71-.234.835.835,0,0,0-.793.5c-.031.094-.057.189-.079.285a2.069,2.069,0,0,1,1.292.855,10.525,10.525,0,0,1-.07,1.19,4.558,4.558,0,0,0-1.164,2.071.918.918,0,0,0-.238.255l-.019.032c-.544-.5-1.056-.3-1.625-.019a1.977,1.977,0,0,1-.231.1l-.249.2a5.47,5.47,0,0,1,1.2.84,1.987,1.987,0,0,1,.369.675c0,.022,0,.3-.008.617l0,.072-.149.048a.191.191,0,0,0,.122.361,4.2,4.2,0,0,0,.14,2.076.971.971,0,0,0-.274.022,1.236,1.236,0,0,0-.841.805,2.321,2.321,0,0,1,1.187,1.042c.115.232.364.861.446,1.07H27.75V89.2a10.679,10.679,0,0,0,.3,2.816c1.1,3.828,4.889,6.478,8.333,8.033a21.242,21.242,0,0,0,2.349.912l.4.078.38-.078A20.207,20.207,0,0,0,46.4,97.227c2.312-2,3.752-4.014,3.948-7.005.038-.569.04-1.018.04-1.018V69.991h-4.71c.082-.209.331-.838.446-1.07"/>
    <path class="cls-1" d="M76.243,90v.016l-.271.109a.18.18,0,0,0,.133.062.787.787,0,0,1,.138.013l-.257.189a.531.531,0,0,0,.274-.012l-.215.244c.093.021.175-.042.26-.094l-.148.258a.578.578,0,0,0,.213-.153l-.072.2c.055,0,.087-.062.13-.124l-.027.206.006.012c.023-.042.045-.085.068-.125s.009-.109.013-.164c0,.048.02.081.017.132a.852.852,0,0,0,.017.151.2.2,0,0,0,.019-.184l.017.026,0-.015.02.182.017-.061h.007a.886.886,0,0,1,.012.1c0,.071-.012.084-.049.048,0,.048.009.079.036.083s.052-.044.059-.173a.362.362,0,0,1-.025.218c-.026.055-.051.061-.109.03l.028.112c-.012.039-.035.046-.063.027l0,.013.054.06-.045.1.041-.016a1.673,1.673,0,0,1-.078.166c-.01.015-.036.008-.051,0-.035-.025-.067-.061-.1-.088-.008,0-.022.006-.03.018a.247.247,0,0,0-.022.053c.033,0,.032.03.018.07l.063-.008-.017.072c.006,0,.014-.008.016,0,.021.032.034.021.053-.013.008-.015.039-.005.054.011a1.117,1.117,0,0,1,.083.112l.027.036c0-.017.007-.038.01-.06s0-.057-.022-.065c-.045-.015-.053-.062-.026-.126l.053-.119.015.054.044-.127.047.056v-.14c.019.054.044.078.078.077a.354.354,0,0,1-.022-.057.183.183,0,0,1,0-.066.038.038,0,0,1,.043-.01.363.363,0,0,1,.031.242.036.036,0,0,1-.036.019c-.012,0-.024-.015-.037-.024.008.064.016.075.074.1-.03.087-.059.107-.128.083.035.065.074.089.12.057s.038-.022.05.046l.012.071c.006-.036.011-.059.014-.082.007-.045.018-.06.045-.039.048.038.083.02.118-.052-.054.028-.094,0-.126-.086.037-.009.069-.028.081-.107a.239.239,0,0,1-.028.023c-.039.027-.061,0-.057-.08a1.036,1.036,0,0,1,.012-.112.1.1,0,0,1,.021-.054c.014-.01.032,0,.049,0a.458.458,0,0,1,0,.074.234.234,0,0,1-.019.05c.036,0,.045-.006.076-.079V91.5l.047-.052.044.123.014-.045c.018.041.036.078.052.117.024.058.015.111-.023.121s-.031.038-.024.079l.006.043.06-.072a.328.328,0,0,0,.042-.056c.026-.053.043-.055.073-.01a.031.031,0,0,0,.032.008c.008,0,.016-.01.025-.016l-.015-.065.059.007c-.009-.062-.007-.067.024-.063a.341.341,0,0,0-.024-.06c-.007-.011-.02-.023-.027-.018a.46.46,0,0,0-.09.075c-.042.048-.055.048-.087-.023l-.047-.107,0-.017.04.013-.046-.1.057-.058a.056.056,0,0,1-.069-.042l.03-.109-.006-.011c-.033.029-.066.047-.1-.006a.393.393,0,0,1-.017-.123.137.137,0,0,0,.008.035c.009.018.031.029.044.022s.022-.04.038-.072c-.024,0-.045.018-.048.009a.271.271,0,0,1-.01-.085.585.585,0,0,1,.014-.092l.017.064.011-.058.011-.058.039.135c.008-.065.015-.116.021-.167v-.028a.22.22,0,0,1,0-.044.377.377,0,0,0,.1.231l-.028-.22c.041.056.072.128.129.123-.025-.068-.048-.131-.069-.191l.183.139c.006.005.014,0,.027.007l-.148-.257c.085.051.167.116.261.095-.075-.084-.149-.169-.224-.254a.481.481,0,0,0,.283.022l-.259-.19a.39.39,0,0,0,.275-.073l-.275-.111V90a.416.416,0,0,0,.277-.114l-.34-.071c.13-.055.266-.065.365-.26a2.037,2.037,0,0,1-.521.081c.039-.016.073-.029.107-.045s.068-.037.1-.057a.834.834,0,0,0,.1-.066.85.85,0,0,0-.4.035l.036-.116,0-.012-.107.165-.031-.05-.006.006c.007.046.012.095.023.139.016.067.035.133.055.2a.612.612,0,0,1-.019.383l0-.075c-.017.076-.028.141-.045.2-.007.025,0,.077-.034.068,0,0-.009.045-.016.065a.625.625,0,0,1-.033.063.331.331,0,0,1-.038-.078.187.187,0,0,1,.01-.074c.01-.036.022-.07.033-.1l-.007-.01c-.01.011-.02.027-.03.031a.026.026,0,0,1-.028-.016.1.1,0,0,1,.007-.051.551.551,0,0,1,.03-.071c-.05,0-.064-.037-.045-.105.008-.03.028-.06,0-.1a.208.208,0,0,1,.009-.06l-.014.009c-.006-.062.007-.073.059-.051a.152.152,0,0,0-.031-.143c-.031-.041-.059-.05-.093-.028-.011.006-.025-.006-.043-.012-.01.021-.024.072-.054.04a.253.253,0,0,1-.023-.067c-.034.041-.035.069,0,.141l-.027.041c.07.011.076.02.083.123l-.032.021a.147.147,0,0,1,.036.14c0,.034-.015.055-.045.032a.309.309,0,0,0,.022.079.053.053,0,0,1,.009.063c-.008.013-.025.008-.039.007s-.009-.014-.014-.021l-.008.009a.485.485,0,0,0,.03.091.137.137,0,0,1-.006.148.016.016,0,0,1-.024,0v0c-.026-.068-.052-.136-.074-.208-.015-.048-.023-.1-.036-.166l0,.068a.619.619,0,0,1-.022-.378c.028-.1.051-.2.076-.306,0-.016,0-.031,0-.047l-.037.06-.105-.166-.006.011.031.1-.39-.041,0,.032.295.158c-.041.016-.1-.014-.151-.015a.967.967,0,0,1-.178-.026c-.059-.012-.117-.031-.175-.047l-.006.017a.925.925,0,0,0,.082.105.529.529,0,0,0,.269.124l.018,0v.017l-.338.071a.211.211,0,0,0,.131.084c.047.013.094.021.142.032m.613-.268c.032-.026.045.032.045.032s-.078-.006-.045-.032"/>
    <path class="cls-1" d="M80.847,89.99a.215.215,0,0,0,.131-.084l-.338-.071v-.017l.018,0a.529.529,0,0,0,.269-.124.936.936,0,0,0,.082-.106L81,89.569c-.058.016-.116.034-.175.047a.967.967,0,0,1-.178.026c-.055,0-.11.03-.151.014l.3-.157,0-.032-.39.041.031-.1-.006-.011-.105.165-.036-.059a.355.355,0,0,0,0,.046c.025.1.048.208.076.307a.626.626,0,0,1-.021.378l0-.069c-.013.065-.021.119-.036.167-.022.072-.048.14-.074.207a.016.016,0,0,1-.023.008h0A.139.139,0,0,1,80.2,90.4a.5.5,0,0,0,.03-.092L80.22,90.3c0,.007-.009.02-.014.02s-.031.007-.039-.006a.054.054,0,0,1,.009-.063.321.321,0,0,0,.022-.079c-.03.023-.04,0-.045-.032A.145.145,0,0,1,80.19,90l-.033-.021c.007-.1.013-.112.083-.124l-.027-.04c.037-.072.036-.1,0-.141a.266.266,0,0,1-.023.067c-.03.031-.044-.019-.054-.041-.018.006-.032.019-.043.012-.034-.021-.062-.012-.093.028a.153.153,0,0,0-.031.143c.052-.021.065-.01.059.052l-.013-.009a.311.311,0,0,1,.009.06c-.027.036-.007.065,0,.1.019.067,0,.107-.044.105a.714.714,0,0,1,.029.071.1.1,0,0,1,.007.051.023.023,0,0,1-.027.015c-.011,0-.021-.019-.031-.03l-.007.009c.011.035.023.069.033.105a.185.185,0,0,1,.01.074.331.331,0,0,1-.038.078.642.642,0,0,1-.033-.064c-.007-.019-.013-.065-.016-.064-.032.009-.027-.043-.034-.068-.016-.06-.028-.124-.045-.2l0,.075a.612.612,0,0,1-.019-.383c.02-.065.039-.131.056-.2.01-.043.015-.092.022-.138l-.006-.006-.03.05-.108-.165,0,.012.036.116a.863.863,0,0,0-.4-.036.737.737,0,0,0,.1.067c.034.02.068.04.1.056s.068.029.107.046a2,2,0,0,1-.521-.082c.1.2.235.206.365.261l-.34.071a.416.416,0,0,0,.277.114v.016l-.275.112a.385.385,0,0,0,.275.072l-.259.191a.488.488,0,0,0,.283-.022l-.224.254c.094.021.176-.045.261-.095-.048.083-.1.166-.147.256.012,0,.02,0,.026-.006l.184-.139-.07.191c.057.005.088-.067.129-.123l-.028.219a.377.377,0,0,0,.1-.23.212.212,0,0,1,.005.044v.028c.006.051.013.1.021.167l.039-.135.011.058.011.058.017-.064a.568.568,0,0,1,.014.092.275.275,0,0,1-.01.085c0,.008-.024,0-.048-.009.016.032.025.065.038.072s.034,0,.044-.022a.147.147,0,0,0,.008-.035.371.371,0,0,1-.018.123c-.029.053-.062.035-.095.006l-.006.011.029.108c-.014.044-.039.044-.068.043l.057.058-.046.1.04-.013,0,.017-.047.107c-.032.07-.045.071-.087.023a.46.46,0,0,0-.09-.075c-.007,0-.02.007-.027.018a.4.4,0,0,0-.025.06c.032-.005.034,0,.025.063l.059-.008-.015.066c.009.006.017.015.025.016a.033.033,0,0,0,.032-.008c.03-.045.047-.043.073.01a.328.328,0,0,0,.042.056c.02.025.04.048.06.072l.006-.043c.007-.042.009-.071-.024-.08s-.047-.063-.023-.12c.016-.039.034-.076.052-.117l.014.045.044-.123.046.052v-.144c.032.073.041.081.077.078a.208.208,0,0,1-.019-.049.458.458,0,0,1,0-.074c.017,0,.035-.006.049,0a.109.109,0,0,1,.021.055,1.036,1.036,0,0,1,.012.112c0,.077-.018.107-.057.08a.239.239,0,0,1-.028-.023c.012.079.044.1.081.107-.032.084-.072.114-.126.086.035.072.07.089.118.052.027-.021.038-.007.045.039,0,.023.008.046.014.082l.012-.071c.012-.068.014-.07.049-.046s.086.008.121-.057c-.069.023-.1,0-.128-.083.058-.029.066-.04.074-.1-.013.008-.025.023-.037.024a.036.036,0,0,1-.036-.019.363.363,0,0,1,.031-.242.038.038,0,0,1,.043.01.183.183,0,0,1,0,.066.283.283,0,0,1-.023.057c.035,0,.06-.023.079-.077v.14l.047-.056.044.127.015-.054.053.119c.027.064.019.111-.026.126-.024.008-.025.033-.022.065s.007.043.01.06l.027-.036a1.117,1.117,0,0,1,.083-.112c.015-.016.046-.026.054-.011.019.034.032.045.053.013,0,0,.01,0,.016,0l-.017-.073.063.009c-.014-.04-.015-.071.018-.07a.227.227,0,0,0-.022-.053c-.008-.012-.022-.024-.03-.018-.034.027-.066.063-.1.088-.015.011-.041.018-.051,0a1.558,1.558,0,0,1-.078-.165l.041.016-.045-.1.054-.06,0-.013c-.028.019-.051.012-.063-.028l.028-.112c-.058.032-.083.026-.109-.029a.362.362,0,0,1-.025-.218c.007.129.023.178.059.173s.037-.035.036-.084c-.037.036-.05.024-.049-.047a.886.886,0,0,1,.012-.1h.007l.017.061.02-.182,0,.015.017-.026a.2.2,0,0,0,.018.184.769.769,0,0,0,.018-.151c0-.051.02-.084.017-.132,0,.055-.017.116.013.164s.045.083.067.125l.007-.012-.027-.206c.043.061.075.128.13.124l-.072-.2a.578.578,0,0,0,.213.153l-.148-.258c.085.052.167.115.26.094l-.215-.244a.531.531,0,0,0,.274.012l-.257-.189a.785.785,0,0,1,.137-.013.181.181,0,0,0,.134-.062l-.271-.11v-.015c.048-.01.095-.018.142-.031m-.8-.2s.013-.058.045-.032-.045.032-.045.032"/>
    <path class="cls-1" d="M74.217,77.9l.125.152a.186.186,0,0,1,.153.033c.027.019.072.008.107.017a.518.518,0,0,1,.091.046c-.032.015-.046.023-.061.028-.108.039-.217.076-.325.118-.035.014-.059.011-.078-.022a6.2,6.2,0,0,0-.523-.685c-.033-.04-.032-.065,0-.106.073-.083.137-.174.206-.262a.193.193,0,0,1,.03-.027.21.21,0,0,1,.026.033.07.07,0,0,1,.005.032c-.009.1-.02.2-.031.309.066.015.086.08.1.162a.493.493,0,0,0,.06-.061c.037-.055.047-.055.107-.033a.362.362,0,0,0,.109,0,.507.507,0,0,1,.056.005.554.554,0,0,1-.014.055.544.544,0,0,0-.033.111c0,.066-.016.08-.085.085a.159.159,0,0,0-.033.009"/>
    <path class="cls-1" d="M72.985,77.937a.161.161,0,0,1,.178.141c0,.007,0,.014,0,.021l-.282-.042h0a.421.421,0,0,0-.1.007.674.674,0,0,1-.318.1.345.345,0,0,0-.056.01.517.517,0,0,0,.057.048.243.243,0,0,0,.242,0,.317.317,0,0,1,.356.056.145.145,0,0,1-.185,0c-.012-.01-.04-.02-.046-.014a.555.555,0,0,0-.09.1.064.064,0,0,0,.017.059c.047.034.093.064.052.141a.643.643,0,0,0,.1-.052c.018-.01.04-.03.056-.027.057.014.113.035.181.057-.027.017-.043.025-.057.035a1.527,1.527,0,0,0-.2.132,1.679,1.679,0,0,1-.369.215.093.093,0,0,1-.124-.026.894.894,0,0,1-.083-.109.785.785,0,0,1-.156-.573c.014-.061.032-.12.05-.18a.377.377,0,0,0-.11-.348.1.1,0,0,0-.066-.021.191.191,0,0,0-.066.035c.048.029.074.051.048.111a1.814,1.814,0,0,1-.2-.087.112.112,0,0,0-.176.086.158.158,0,0,1,.042-.009.094.094,0,0,1,.055.013c.008.007,0,.033,0,.049a.081.081,0,0,1-.076.073.117.117,0,0,0-.048.025c-.032.02-.062.042-.095.06a.094.094,0,0,0-.039.126l0,.006.027-.016c.053-.032.061-.028.088.029a.178.178,0,0,0,.053.074.182.182,0,0,1,.08.169c0,.035,0,.07,0,.1a.1.1,0,0,1-.071.1.211.211,0,0,0-.04.026.352.352,0,0,0,.095.052c.056.01.072.043.082.093a1.262,1.262,0,0,0,.3.638.105.105,0,0,1,.022.126.5.5,0,0,0-.024.171c0,.05-.008.083-.052.1a1.042,1.042,0,0,1-.444.084.06.06,0,0,1-.063-.073c0-.031.01-.062.013-.093.007-.076-.052-.175-.116-.179a.3.3,0,0,1-.142-.045.089.089,0,0,0-.121.028l-.009.019s.01.006.015,0a.054.054,0,0,1,.061.044v.011a.118.118,0,0,1-.039.069.115.115,0,0,1-.121.025.125.125,0,0,0-.088.025c-.014.009-.012.042-.016.06.038.007.08,0,.087.018.025.053.1.091.062.166a.369.369,0,0,1-.057.088c-.054.056-.058.111,0,.154l.016-.027c.031-.05.051-.049.1-.016a.206.206,0,0,0,.1.031.382.382,0,0,1,.338.207c.01.017.023.033.034.049l.022,0c0-.049.009-.1.011-.148,0-.074.057-.1.124-.067a.544.544,0,0,0,.188.068.319.319,0,0,1,.269.187.746.746,0,0,0,.106.125.246.246,0,0,0,.06.032.6.6,0,0,0-.012-.077c-.009-.038.007-.049.041-.041.019,0,.037.017.056.021a.4.4,0,0,0,.159.029.366.366,0,0,1,.393.333v.024c-.024,0-.047,0-.069-.005a1.025,1.025,0,0,0-.4.015.217.217,0,0,0-.164.126.382.382,0,0,0,.01.314,1.2,1.2,0,0,1,.1.267c.025.12-.037.171-.158.148a.33.33,0,0,1-.278-.233c-.033-.1-.146-.18-.226-.156a1.01,1.01,0,0,1-.226.032.11.11,0,0,0-.1.112c.024,0,.046-.012.069-.015s.058,0,.06.043.007.083.007.124c0,.017,0,.042-.015.049-.062.041-.076.111-.109.168a.146.146,0,0,0,.018.186l.046-.079c.036.019.063.035.091.048.061.026.072.051.046.109a.446.446,0,0,0-.025.055.1.1,0,0,0,.042.13c.024-.1.1-.1.18-.109a.486.486,0,0,0,.133-.045.536.536,0,0,1,.14-.052c.159-.009.319-.008.479-.011.113,0,.118-.009.118-.125,0-.091,0-.183.008-.274a.191.191,0,0,1,.135-.177.912.912,0,0,1,.221-.03c.07,0,.084.02.1.09a1.15,1.15,0,0,0,.069.23.5.5,0,0,0,.309.286,1.738,1.738,0,0,0,.275.047c.1.012.193.017.3.025a.42.42,0,0,1-.4.234.637.637,0,0,0-.174-.02.236.236,0,0,0-.141.062.816.816,0,0,0-.1.192c-.006.013.006.034.01.051l.418,0h.424l.008-.036a.332.332,0,0,1,.226-.254.839.839,0,0,0,.167-.083.143.143,0,0,0,.072-.19.135.135,0,0,0-.015-.026.256.256,0,0,0-.091-.091c-.121-.068-.247-.127-.371-.191-.1-.05-.111-.086-.085-.191a.268.268,0,0,1,.029-.082.066.066,0,0,1,.051-.031c.066.005.131.02.2.027a.519.519,0,0,0,.33-.057.466.466,0,0,0,.221-.506,1.237,1.237,0,0,0-.171-.466c-.1-.175-.2-.347-.288-.525a1.852,1.852,0,0,1-.111-.3.115.115,0,0,1,.063-.138c.045-.017.086.005.125.063a.517.517,0,0,0,.042.051.188.188,0,0,0-.105-.222c-.041-.016-.056-.032-.051-.079a.413.413,0,0,0-.024-.12H74.49c-.05.06-.04.164-.144.2-.015-.06-.03-.115-.043-.171a.678.678,0,0,1,.089-.577.43.43,0,0,1,.4-.221.191.191,0,0,1,.185.2.22.22,0,0,1,0,.036.317.317,0,0,1-.053.113.38.38,0,0,0-.057.33c.017.065.042.128.064.192.009.026.022.051.037.087.085-.1.08-.219.132-.332l.046.084.018-.016a1.217,1.217,0,0,0,.037-.433.416.416,0,0,0-.4-.384.544.544,0,0,0-.474.226.771.771,0,0,0-.148.669,2.855,2.855,0,0,0,.135.445c.083.209.181.412.275.616.052.112.115.218.166.329a1.109,1.109,0,0,1,.11.423.284.284,0,0,1-.13.268.393.393,0,0,1-.43-.018.162.162,0,0,1-.049-.069c-.037-.111-.064-.226-.105-.335a3.708,3.708,0,0,0-.375-.689,2.8,2.8,0,0,1-.195-.367.453.453,0,0,1-.022-.272c.034.018.059.033.086.045a.14.14,0,0,0,.041,0,.283.283,0,0,0,0-.041,1.25,1.25,0,0,1-.012-.174.266.266,0,0,1,.076-.194l.084.112c.036-.1.073-.188.1-.28s.049-.19.074-.289l.075.046c.026-.082.047-.158.074-.231A.46.46,0,0,0,74.1,78.2c-.139-.186-.282-.37-.423-.554-.073-.094-.122-.113-.233-.067a.423.423,0,0,1-.208.03c-.113-.01-.225-.029-.337-.04-.028,0-.07,0-.084.018s-.009.059-.012.09.008.047,0,.061a.111.111,0,0,0,0,.157l.013.012a.946.946,0,0,0,.175.032m.407-.049,0-.014c.1-.021.08-.1.094-.17l.108.205-.2-.021"/>
    <path class="cls-1" d="M79.553,71.2l.125.152a.188.188,0,0,1,.154.033c.026.019.072.008.106.017a.527.527,0,0,1,.092.046c-.033.015-.047.023-.062.028-.108.039-.217.076-.324.118-.036.014-.059.011-.079-.022a6.077,6.077,0,0,0-.523-.685c-.033-.04-.031-.065,0-.106.074-.083.138-.174.206-.261a.27.27,0,0,1,.031-.028.2.2,0,0,1,.025.033.059.059,0,0,1,.006.032c-.01.1-.02.2-.031.31.065.014.085.079.1.161a.493.493,0,0,0,.06-.061c.038-.055.048-.055.107-.033a.362.362,0,0,0,.109,0l.057,0c0,.019-.009.037-.015.055a.544.544,0,0,0-.033.111c-.005.066-.015.081-.085.085l-.033.009"/>
    <path class="cls-1" d="M78.322,71.234a.16.16,0,0,1,.177.141.148.148,0,0,1,0,.021l-.282-.042h0a.418.418,0,0,0-.1.007.677.677,0,0,1-.318.095.284.284,0,0,0-.057.01.548.548,0,0,0,.058.048.241.241,0,0,0,.241,0,.319.319,0,0,1,.356.055.141.141,0,0,1-.184,0c-.012-.009-.04-.019-.046-.013a.582.582,0,0,0-.09.1.063.063,0,0,0,.017.06c.047.034.092.064.052.141a.633.633,0,0,0,.1-.052c.019-.01.041-.03.057-.027.057.014.112.035.18.057l-.057.035a1.6,1.6,0,0,0-.2.132,1.679,1.679,0,0,1-.369.215.092.092,0,0,1-.123-.026.8.8,0,0,1-.083-.109.785.785,0,0,1-.156-.573c.013-.061.031-.12.05-.18a.377.377,0,0,0-.111-.348.1.1,0,0,0-.065-.021.2.2,0,0,0-.067.035c.048.029.075.051.048.111a1.814,1.814,0,0,1-.2-.087.111.111,0,0,0-.155.026.119.119,0,0,0-.02.06.143.143,0,0,1,.042-.009.09.09,0,0,1,.055.013c.008.007,0,.033,0,.049A.083.083,0,0,1,77,71.23a.111.111,0,0,0-.048.025c-.032.02-.062.043-.095.06a.093.093,0,0,0-.039.126l0,.006.027-.016c.053-.032.062-.027.088.029a.189.189,0,0,0,.054.074.181.181,0,0,1,.079.169c0,.035,0,.07,0,.105a.093.093,0,0,1-.071.1.2.2,0,0,0-.039.026.362.362,0,0,0,.094.052c.056.01.073.043.083.093a1.254,1.254,0,0,0,.3.638.11.11,0,0,1,.022.127.486.486,0,0,0-.024.17c0,.05-.008.083-.052.1a1.044,1.044,0,0,1-.445.084.06.06,0,0,1-.062-.073c0-.031.01-.062.012-.093.008-.076-.052-.175-.115-.179a.3.3,0,0,1-.142-.044.087.087,0,0,0-.121.027l-.009.019c.005,0,.009.006.014.006a.052.052,0,0,1,.061.043v.012a.117.117,0,0,1-.038.068.115.115,0,0,1-.121.025.128.128,0,0,0-.089.025c-.014.01-.012.042-.016.06.038.007.081,0,.087.018.026.053.1.091.063.166a.344.344,0,0,1-.058.088c-.054.056-.058.111,0,.154l.017-.027c.031-.05.05-.049.1-.016a.19.19,0,0,0,.1.031.383.383,0,0,1,.338.207.434.434,0,0,0,.035.049l.022,0c0-.049.008-.1.01-.148,0-.074.057-.1.125-.067a.5.5,0,0,0,.187.068.321.321,0,0,1,.27.187.668.668,0,0,0,.106.125.225.225,0,0,0,.059.032c-.005-.035-.006-.057-.011-.077-.009-.037.007-.049.04-.041s.038.017.057.021a.375.375,0,0,0,.159.029.364.364,0,0,1,.392.333v.024c-.023,0-.046,0-.069,0a1.026,1.026,0,0,0-.4.015.216.216,0,0,0-.163.126.378.378,0,0,0,.01.314,1.153,1.153,0,0,1,.1.267c.025.12-.036.171-.157.148a.331.331,0,0,1-.279-.233c-.032-.1-.145-.18-.225-.155a1.017,1.017,0,0,1-.226.031.109.109,0,0,0-.1.112c.024-.005.046-.012.068-.015s.059,0,.06.044.008.082.008.123a.072.072,0,0,1-.016.05c-.061.04-.075.11-.109.167a.144.144,0,0,0,.019.186l.045-.079c.037.019.063.036.092.048.06.026.072.051.045.109a.393.393,0,0,0-.024.056.1.1,0,0,0,.041.129c.025-.1.1-.1.18-.109a.445.445,0,0,0,.133-.045.543.543,0,0,1,.141-.052c.159-.009.319-.008.478-.011.113,0,.118-.009.118-.124,0-.092,0-.184.008-.274a.191.191,0,0,1,.136-.178.911.911,0,0,1,.22-.03c.07,0,.085.02.1.09a1.15,1.15,0,0,0,.069.23.5.5,0,0,0,.31.286,1.816,1.816,0,0,0,.275.047c.095.012.192.017.294.025a.419.419,0,0,1-.4.234.63.63,0,0,0-.173-.02.23.23,0,0,0-.141.062.78.78,0,0,0-.1.192c-.006.013.006.034.009.051l.418,0h.425l.007-.036a.33.33,0,0,1,.227-.254.9.9,0,0,0,.167-.083.143.143,0,0,0,.071-.19.135.135,0,0,0-.015-.026.273.273,0,0,0-.09-.092c-.122-.067-.248-.126-.371-.19-.1-.05-.112-.087-.086-.191a.273.273,0,0,1,.029-.083.072.072,0,0,1,.052-.03c.065,0,.13.019.2.026a.51.51,0,0,0,.33-.056.465.465,0,0,0,.221-.506,1.2,1.2,0,0,0-.171-.466c-.1-.175-.2-.348-.287-.525a1.893,1.893,0,0,1-.112-.3.116.116,0,0,1,.064-.138c.044-.017.086,0,.125.063a.517.517,0,0,0,.042.051.189.189,0,0,0-.106-.222c-.04-.016-.055-.032-.05-.079a.384.384,0,0,0-.025-.12h-.02c-.05.06-.04.164-.145.2-.015-.06-.03-.115-.042-.171a.675.675,0,0,1,.089-.577.428.428,0,0,1,.4-.221.191.191,0,0,1,.186.2.223.223,0,0,1,0,.036.317.317,0,0,1-.053.113.377.377,0,0,0-.056.33c.017.065.041.128.064.192.009.026.021.051.037.087.085-.1.08-.219.131-.332l.046.084.019-.017a1.233,1.233,0,0,0,.037-.432.417.417,0,0,0-.4-.384.541.541,0,0,0-.473.226.775.775,0,0,0-.149.669,2.855,2.855,0,0,0,.135.445c.083.209.181.412.276.616.052.111.114.217.165.329a1.11,1.11,0,0,1,.111.422.286.286,0,0,1-.13.269.393.393,0,0,1-.43-.018.154.154,0,0,1-.049-.069c-.037-.111-.065-.226-.105-.335a3.772,3.772,0,0,0-.376-.689,3.009,3.009,0,0,1-.195-.368.465.465,0,0,1-.022-.271c.035.018.059.033.086.045a.144.144,0,0,0,.041,0,.19.19,0,0,0,0-.041,1.44,1.44,0,0,1-.013-.174.265.265,0,0,1,.077-.194l.083.112c.037-.1.073-.189.1-.28s.049-.19.074-.289l.075.046c.025-.082.047-.158.073-.231a.457.457,0,0,0-.062-.453c-.139-.186-.282-.37-.424-.554-.072-.094-.121-.113-.232-.067a.427.427,0,0,1-.209.03c-.112-.01-.224-.029-.337-.04a.11.11,0,0,0-.083.017c-.016.021-.01.06-.012.091s.007.047,0,.061a.111.111,0,0,0,0,.157l.014.011a.858.858,0,0,0,.175.033m.407-.049,0-.014c.1-.021.08-.1.094-.17l.109.2-.2-.021"/>
    <path class="cls-1" d="M90.333,85.051l.125.153a.181.181,0,0,1,.154.033c.026.018.071.007.106.016a.608.608,0,0,1,.092.046c-.033.015-.047.023-.062.028-.108.04-.217.076-.324.118-.036.014-.059.011-.079-.021a5.9,5.9,0,0,0-.523-.685.067.067,0,0,1,0-.106c.074-.084.138-.175.206-.262a.029.029,0,0,1,.029-.028.029.029,0,0,1,.027.029v0a.059.059,0,0,1,.006.032c-.01.1-.021.2-.031.31.065.014.085.079.1.161a.432.432,0,0,0,.06-.061c.037-.055.048-.054.107-.033a.362.362,0,0,0,.109,0,.548.548,0,0,1,.057,0c0,.018-.009.036-.015.054a.544.544,0,0,0-.033.111c0,.066-.015.081-.085.086a.132.132,0,0,0-.033.008"/>
    <path class="cls-1" d="M89.1,85.088a.16.16,0,0,1,.177.14.148.148,0,0,1,0,.021L89,85.207h0a.481.481,0,0,0-.1.007.659.659,0,0,1-.318.095.366.366,0,0,0-.056.01.455.455,0,0,0,.058.049.239.239,0,0,0,.241,0,.319.319,0,0,1,.356.056.142.142,0,0,1-.184,0c-.013-.01-.04-.02-.046-.014a.589.589,0,0,0-.09.1.064.064,0,0,0,.017.06c.047.034.092.064.052.14a.559.559,0,0,0,.1-.052c.018-.01.04-.03.056-.026a1.834,1.834,0,0,1,.181.057l-.057.035a1.52,1.52,0,0,0-.2.131,1.641,1.641,0,0,1-.369.215.093.093,0,0,1-.123-.025.738.738,0,0,1-.083-.11.785.785,0,0,1-.156-.573c.013-.06.031-.12.05-.179a.381.381,0,0,0-.111-.349.11.11,0,0,0-.065-.021.238.238,0,0,0-.067.035c.048.029.074.052.048.111a2.024,2.024,0,0,1-.2-.086.11.11,0,0,0-.175.086.143.143,0,0,1,.042-.01.1.1,0,0,1,.055.013c.007.007,0,.033,0,.05a.083.083,0,0,1-.076.072.123.123,0,0,0-.048.025c-.032.02-.062.043-.095.061a.093.093,0,0,0-.039.126l0,.006.027-.016c.053-.033.062-.028.088.028a.18.18,0,0,0,.054.074.184.184,0,0,1,.079.17c0,.035,0,.069,0,.1a.093.093,0,0,1-.071.1.209.209,0,0,0-.039.027.356.356,0,0,0,.094.051c.056.011.072.044.083.093a1.254,1.254,0,0,0,.3.638.11.11,0,0,1,.022.127.49.49,0,0,0-.024.17c0,.05-.008.084-.052.1a1.032,1.032,0,0,1-.445.084c-.046,0-.065-.03-.062-.073s.01-.061.012-.092c.007-.077-.052-.176-.115-.179a.308.308,0,0,1-.142-.045.089.089,0,0,0-.122.027l-.008.019a.035.035,0,0,0,.014.006.053.053,0,0,1,.061.044v.011a.117.117,0,0,1-.038.068.119.119,0,0,1-.122.026.117.117,0,0,0-.088.025c-.014.009-.012.042-.016.06.038.006.081,0,.087.017.026.053.1.092.062.166a.317.317,0,0,1-.057.088c-.054.057-.058.111,0,.155l.016-.027c.032-.05.051-.049.1-.016a.2.2,0,0,0,.1.031.379.379,0,0,1,.338.207c.01.017.023.032.035.049l.021,0c0-.05.009-.1.011-.149,0-.074.057-.1.124-.067a.513.513,0,0,0,.188.068.317.317,0,0,1,.269.188.844.844,0,0,0,.106.125.244.244,0,0,0,.06.031c-.005-.035-.006-.056-.011-.077-.009-.037.007-.048.04-.04s.037.016.057.02a.39.39,0,0,0,.158.03.363.363,0,0,1,.393.333V88.1c-.023,0-.046,0-.069,0a1.025,1.025,0,0,0-.4.015.212.212,0,0,0-.163.126.382.382,0,0,0,.009.314,1.149,1.149,0,0,1,.1.266c.025.12-.037.171-.157.149a.332.332,0,0,1-.279-.234c-.033-.1-.146-.18-.226-.155a1,1,0,0,1-.225.032.109.109,0,0,0-.1.111.65.65,0,0,1,.069-.014c.032-.005.058,0,.06.043s.007.082.008.124a.071.071,0,0,1-.016.049c-.061.041-.075.111-.109.168a.145.145,0,0,0,.019.186l.045-.08c.037.02.063.036.092.048.06.026.071.051.045.11a.387.387,0,0,0-.025.055.105.105,0,0,0,.042.129c.025-.1.1-.1.18-.108a.509.509,0,0,0,.133-.045.546.546,0,0,1,.141-.053c.159-.009.318-.008.478-.011.113,0,.118-.009.118-.124,0-.092,0-.183.008-.274a.189.189,0,0,1,.136-.177.865.865,0,0,1,.22-.031c.07,0,.085.02.1.09a1.15,1.15,0,0,0,.069.23.5.5,0,0,0,.31.286,1.818,1.818,0,0,0,.275.048c.1.011.192.016.294.024a.418.418,0,0,1-.4.234.629.629,0,0,0-.173-.019.225.225,0,0,0-.141.062.774.774,0,0,0-.1.191c-.006.014.006.035.009.051l.418,0h.424c0-.015,0-.026.008-.036a.332.332,0,0,1,.226-.254.82.82,0,0,0,.168-.083.143.143,0,0,0,.071-.19.128.128,0,0,0-.015-.025.256.256,0,0,0-.09-.092c-.122-.068-.248-.127-.371-.191-.1-.05-.112-.086-.086-.19a.273.273,0,0,1,.029-.083.07.07,0,0,1,.052-.031c.065,0,.13.02.2.027a.511.511,0,0,0,.33-.057.465.465,0,0,0,.221-.506,1.2,1.2,0,0,0-.171-.466c-.1-.175-.2-.347-.287-.525a1.82,1.82,0,0,1-.112-.3.115.115,0,0,1,.063-.137q.068-.026.126.063.019.026.042.051a.19.19,0,0,0-.106-.223c-.04-.015-.055-.031-.05-.078a.408.408,0,0,0-.025-.12h-.02c-.05.059-.04.163-.145.2-.015-.059-.03-.115-.042-.171a.671.671,0,0,1,.089-.577.43.43,0,0,1,.4-.221.19.19,0,0,1,.185.2.134.134,0,0,1,0,.035.309.309,0,0,1-.053.113.377.377,0,0,0-.056.33,1.982,1.982,0,0,0,.064.193c.009.026.021.051.037.086.085-.1.079-.219.131-.332l.046.084.019-.016a1.262,1.262,0,0,0,.037-.433.418.418,0,0,0-.4-.384.542.542,0,0,0-.473.227.774.774,0,0,0-.149.669,2.922,2.922,0,0,0,.135.445c.083.208.181.412.276.616.051.111.114.217.165.328a1.115,1.115,0,0,1,.111.423.286.286,0,0,1-.13.268.389.389,0,0,1-.43-.018.147.147,0,0,1-.049-.069c-.037-.111-.065-.225-.106-.335a3.669,3.669,0,0,0-.375-.688,2.877,2.877,0,0,1-.195-.368.46.46,0,0,1-.022-.272c.034.018.059.034.086.045a.113.113,0,0,0,.041.005.271.271,0,0,0,0-.04,1.274,1.274,0,0,1-.013-.174.264.264,0,0,1,.077-.2l.083.112c.037-.1.073-.188.1-.28s.049-.189.074-.289l.076.046c.025-.082.046-.157.073-.231a.46.46,0,0,0-.062-.453c-.139-.186-.282-.369-.424-.554-.072-.094-.122-.113-.232-.067a.428.428,0,0,1-.209.031c-.113-.01-.224-.03-.337-.041-.028,0-.069,0-.083.018s-.01.059-.012.09.007.047,0,.061a.113.113,0,0,0,0,.158l.014.011a.858.858,0,0,0,.175.033m.406-.05,0-.014c.1-.021.08-.1.094-.17.034.064.067.128.109.206l-.2-.022"/>
    <path class="cls-1" d="M84.983,91.9l.125.153a.183.183,0,0,1,.153.032c.027.019.072.008.107.017a.6.6,0,0,1,.091.046c-.032.015-.046.023-.061.028-.108.039-.217.076-.325.118-.036.014-.059.011-.078-.021a6.116,6.116,0,0,0-.523-.686c-.034-.04-.032-.065,0-.105.073-.084.137-.175.206-.262a.193.193,0,0,1,.03-.027.185.185,0,0,1,.025.032.059.059,0,0,1,.006.032c-.009.1-.02.2-.031.31.066.014.086.079.1.161a.486.486,0,0,0,.06-.06c.037-.056.047-.055.107-.034a.332.332,0,0,0,.109,0c.019,0,.037,0,.056.006,0,.018-.009.036-.014.054a.619.619,0,0,0-.034.111c0,.066-.015.081-.084.086a.114.114,0,0,0-.033.008"/>
    <path class="cls-1" d="M85.085,96.639c-.086.093.08-.12.208-.161a.788.788,0,0,0,.167-.083.142.142,0,0,0,.072-.19.128.128,0,0,0-.015-.025.251.251,0,0,0-.091-.092c-.121-.067-.247-.127-.371-.191-.1-.05-.111-.086-.085-.19A.273.273,0,0,1,85,95.624a.067.067,0,0,1,.052-.031c.065,0,.13.02.195.027a.519.519,0,0,0,.33-.056.468.468,0,0,0,.221-.506,1.2,1.2,0,0,0-.171-.467c-.1-.175-.2-.347-.288-.525a1.816,1.816,0,0,1-.111-.3.115.115,0,0,1,.063-.137c.045-.017.087,0,.125.063q.019.025.042.051a.188.188,0,0,0-.1-.222c-.04-.016-.055-.032-.05-.079a.408.408,0,0,0-.025-.12h-.02c-.05.059-.041.163-.145.2-.015-.059-.03-.115-.043-.171a.678.678,0,0,1,.089-.577.431.431,0,0,1,.4-.221.192.192,0,0,1,.185.2.22.22,0,0,1,0,.036.325.325,0,0,1-.053.113.379.379,0,0,0-.057.329c.017.066.042.129.064.193.01.026.022.051.037.086.086-.1.08-.219.132-.332l.046.084.018-.016a1.235,1.235,0,0,0,.038-.432.419.419,0,0,0-.4-.385.542.542,0,0,0-.473.227.768.768,0,0,0-.149.669,2.922,2.922,0,0,0,.135.445c.083.209.181.412.276.616.051.111.114.217.165.329a1.1,1.1,0,0,1,.11.422.285.285,0,0,1-.129.269.393.393,0,0,1-.43-.018.155.155,0,0,1-.049-.07c-.038-.111-.065-.225-.106-.335a3.669,3.669,0,0,0-.375-.688,2.877,2.877,0,0,1-.2-.368.46.46,0,0,1-.022-.272c.034.019.059.034.086.046a.139.139,0,0,0,.041,0,.269.269,0,0,0,0-.04,1.272,1.272,0,0,1-.012-.174.267.267,0,0,1,.076-.195l.084.112c.036-.1.073-.188.1-.28s.049-.19.074-.289l.075.046c.026-.082.047-.157.074-.231a.455.455,0,0,0-.063-.452c-.138-.187-.281-.37-.423-.555-.073-.094-.122-.113-.232-.067A.428.428,0,0,1,84,91.61c-.113-.011-.225-.03-.337-.041-.028,0-.07,0-.084.018s-.009.059-.011.09.007.047,0,.061a.112.112,0,0,0,0,.158l.013.011a.885.885,0,0,0,.175.033.161.161,0,0,1,.178.141c0,.006,0,.013,0,.02l-.282-.042h0a.481.481,0,0,0-.1.007.662.662,0,0,1-.318.095.345.345,0,0,0-.056.01.426.426,0,0,0,.057.048.238.238,0,0,0,.242,0,.319.319,0,0,1,.356.056.144.144,0,0,1-.185,0c-.012-.01-.039-.02-.045-.014a.55.55,0,0,0-.09.1.064.064,0,0,0,.016.06c.047.034.093.064.052.14a.637.637,0,0,0,.1-.051c.018-.011.04-.031.056-.027.057.013.113.034.181.057-.027.016-.043.025-.057.035a1.52,1.52,0,0,0-.2.131,1.641,1.641,0,0,1-.369.215.094.094,0,0,1-.124-.025.905.905,0,0,1-.083-.11.785.785,0,0,1-.156-.573c.014-.06.032-.12.05-.179a.378.378,0,0,0-.11-.349.11.11,0,0,0-.066-.021.232.232,0,0,0-.066.035c.048.029.074.052.048.112-.067-.026-.133-.055-.2-.087a.111.111,0,0,0-.155.025.112.112,0,0,0-.021.061.158.158,0,0,1,.043-.01.092.092,0,0,1,.054.013c.008.007,0,.033,0,.05a.083.083,0,0,1-.076.072.127.127,0,0,0-.049.025c-.031.02-.062.043-.094.061a.093.093,0,0,0-.039.126l0,.006.027-.016c.053-.033.061-.028.088.028a.187.187,0,0,0,.053.074.183.183,0,0,1,.08.17c0,.035,0,.069,0,.1a.094.094,0,0,1-.071.1.255.255,0,0,0-.04.027.378.378,0,0,0,.095.051c.056.011.072.044.083.093a1.246,1.246,0,0,0,.3.638.108.108,0,0,1,.021.127.489.489,0,0,0-.023.17c0,.05-.009.084-.053.1a.418.418,0,0,1-.277.066l.294.411c.134.007.144.105.206.21a.788.788,0,0,0,.106.125.244.244,0,0,0,.06.031c0-.035-.006-.056-.011-.077-.01-.037.007-.048.04-.04s.037.016.056.02a.4.4,0,0,0,.159.03.363.363,0,0,1,.393.332v.025c-.023,0-.047,0-.069-.005a1.006,1.006,0,0,0-.4.015l.322.285.281.319c.07,0,.085.02.1.09a.323.323,0,0,0,.11.193c.133.1.2.217.347.259.089.025.1.1.2.112s.193.016.3.024c-.048.14-.129.133-.268.109Zm-.927-4.749,0-.014c.1-.021.08-.1.094-.17l.108.206-.2-.022"/>
    <path class="cls-1" d="M81.311,99.047v-.7a.631.631,0,0,0-.106.008.474.474,0,0,1-.4-.152.584.584,0,0,1-.2-.3c-.022-.077-.035-.168-.063-.25.322.078.514-.033.777.529,0-.092,0-.2,0-.309a.112.112,0,0,0-.068-.081.866.866,0,0,1-.462-.4.374.374,0,0,1-.045-.179,4.107,4.107,0,0,0,.383.187c.122.045.115.161.18.242-.041-.194-.133-.336-.175-.532.009,0,.075-.053.094-.053-.028-.137-.12-.247-.148-.38a.758.758,0,0,0-.405.355l-.024-.014.125-.344c-.13.017-.267-.052-.411.022a.41.41,0,0,1-.476-.058,2.269,2.269,0,0,0-.2-.128l-.052-.04c.057-.07.111-.133.161-.2a.485.485,0,0,1,.362-.208c-.176-.078-.184-.249-.24-.394-.032-.085-.081-.164-.121-.246a.645.645,0,0,1-.027-.085.364.364,0,0,1,.418.112.035.035,0,0,0,.02.014l.2.022c-.023-.041-.05-.085-.074-.131a.368.368,0,0,1-.022-.3c.006-.019.029-.045.045-.046.1,0,.207,0,.3,0l.013-.245.128.017a.22.22,0,0,0,.22-.051c.034-.035.13-.017.2-.009s.139.062.215.012c.009,0,.033.005.045.014a.382.382,0,0,0,.268.071c.081,0,.15.011.175.112s.069.208.111.309l.362-.142a.792.792,0,0,1-.165.6l.256-.055c-.014.072-.027.144-.043.215-.008.032-.026.062-.034.094-.031.118-.026.128.087.171a.568.568,0,0,1,.22.233c-.058.023-.116.047-.176.069-.02.008-.044.009-.065.015a1.072,1.072,0,0,1-.266.073,1,1,0,0,1-.262-.072l0,.025a.558.558,0,0,1-.119.041c-.134.013-.268.018-.392.025a1.828,1.828,0,0,1,.273.093.822.822,0,0,1,.226.189c-.16-.031-.319-.06-.478-.094-.092-.02-.049,0-.158-.063.014.05.018.07.032.12,0,.008-.028.02-.026.027a1.568,1.568,0,0,1,.083.7c0,.059.046.12.068.182a.192.192,0,0,1,.007.072c-.006.1-.015.193-.024.312.064-.042.126-.088.186-.136a.122.122,0,0,0,.018-.083.286.286,0,0,1,.052-.24.867.867,0,0,0,.1-.22.389.389,0,0,1,.343-.229.2.2,0,0,1,.121.017,2.745,2.745,0,0,1,.3.235c.1.092.192.2.3.308-.066.024-.148.052-.228.083a.491.491,0,0,0-.085.051.352.352,0,0,1-.069.044c-.106.032-.213.06-.32.089-.013,0-.034,0-.038.012-.031.067-.088.047-.136.04A1.019,1.019,0,0,1,81.817,98a.319.319,0,0,0-.373.149c-.013.03,0,.074.01.133-.032.046.006.136-.024.373.02-.007.07-.019.086-.024-.024.123-.027.23-.051.353"/>
    <path class="cls-1" d="M87.222,76.389l0,.015-.272.11a.184.184,0,0,0,.134.062.7.7,0,0,1,.137.013l-.257.189a.542.542,0,0,0,.274-.012l-.215.244c.093.021.175-.042.26-.094l-.148.258a.57.57,0,0,0,.213-.153l-.072.2c.055,0,.087-.063.13-.124l-.027.206.007.012c.022-.042.044-.085.068-.125s.008-.109.013-.164c0,.048.019.081.016.132a.769.769,0,0,0,.018.151.2.2,0,0,0,.018-.184l.018.025,0-.015.021.183.017-.061h.006a.886.886,0,0,1,.012.1c0,.071-.012.083-.048.047,0,.049.009.079.035.083s.052-.043.059-.172a.356.356,0,0,1-.025.218c-.026.055-.051.06-.109.029l.029.112c-.012.04-.036.047-.064.028l0,.013.054.06-.045.1.041-.016a1.657,1.657,0,0,1-.078.165c-.009.016-.035.009-.051,0-.034-.025-.066-.061-.1-.088-.007-.006-.022.006-.03.017A.27.27,0,0,0,87.24,78c.033,0,.032.03.019.07l.063-.008-.018.073c.006,0,.014-.008.017,0,.021.031.033.02.052-.014.009-.015.039,0,.054.012a1.168,1.168,0,0,1,.084.112l.026.035c0-.017.008-.037.01-.059s0-.057-.022-.065c-.045-.015-.053-.062-.026-.126.017-.039.035-.077.053-.119l.015.053.045-.126.046.056v-.14c.019.054.044.078.079.077a.369.369,0,0,1-.023-.058.2.2,0,0,1,0-.065.036.036,0,0,1,.043-.01.369.369,0,0,1,.032.242.039.039,0,0,1-.036.019c-.013,0-.025-.016-.038-.024.009.064.016.074.074.1-.03.087-.059.106-.128.083.036.065.074.089.121.057s.037-.022.049.046l.012.07c.007-.035.011-.058.014-.081.007-.046.018-.06.045-.039.048.037.083.02.119-.052-.055.028-.095,0-.126-.087.037-.009.068-.028.081-.106-.012.009-.02.017-.028.022-.04.027-.062,0-.058-.079a1.036,1.036,0,0,1,.012-.112.109.109,0,0,1,.021-.055c.015-.009.033,0,.049,0a.593.593,0,0,1,0,.073.218.218,0,0,1-.02.05c.036,0,.045,0,.077-.079v.144l.046-.051.045.123.013-.045c.018.041.036.078.052.117.024.057.015.11-.023.12s-.031.038-.024.08l.007.043c.02-.024.04-.047.059-.072a.328.328,0,0,0,.042-.056c.027-.053.043-.056.074-.01.007.01.02.009.031.008s.016-.01.025-.017l-.015-.065.06.008c-.01-.062-.008-.068.024-.064a.435.435,0,0,0-.025-.059c-.006-.011-.02-.023-.027-.018a.46.46,0,0,0-.09.075c-.042.047-.055.047-.086-.024l-.048-.106,0-.018.039.014-.045-.1.056-.058c-.029,0-.053,0-.068-.042l.029-.109-.006-.01c-.033.029-.066.047-.095-.006a.373.373,0,0,1-.018-.124.2.2,0,0,0,.008.035c.01.018.031.03.044.023s.022-.04.038-.072c-.023,0-.045.017-.048.009a.278.278,0,0,1-.01-.086.573.573,0,0,1,.014-.091l.017.064.011-.058.011-.058.039.135c.009-.066.015-.117.021-.168a.12.12,0,0,0,0-.027.161.161,0,0,1,.006-.044.373.373,0,0,0,.1.23l-.028-.219c.041.055.073.128.129.123q-.036-.1-.069-.192l.183.14c.006.005.014,0,.027.006l-.148-.256c.085.05.167.116.261.095l-.223-.254a.486.486,0,0,0,.282.022l-.258-.191a.389.389,0,0,0,.274-.073l-.274-.111v-.016a.423.423,0,0,0,.278-.114L88.4,76.2c.13-.055.265-.065.364-.261a1.993,1.993,0,0,1-.52.081c.038-.016.072-.028.106-.045s.068-.036.1-.056a.78.78,0,0,0,.1-.067.874.874,0,0,0-.4.035l.036-.116-.006-.011-.107.165-.03-.05-.007.006c.007.046.012.094.023.138.016.068.036.134.056.2a.623.623,0,0,1-.019.384l0-.076c-.017.077-.029.141-.046.2-.007.025,0,.076-.034.068,0,0-.008.044-.016.064s-.021.043-.033.064a.338.338,0,0,1-.038-.079.18.18,0,0,1,.01-.073c.01-.037.022-.07.033-.1l-.007-.01c-.01.011-.019.028-.03.031a.024.024,0,0,1-.028-.015.115.115,0,0,1,.007-.052.734.734,0,0,1,.03-.07c-.05,0-.063-.038-.045-.105.008-.031.028-.06,0-.1a.3.3,0,0,1,.009-.06L87.9,76.3c-.006-.062.007-.074.06-.052a.155.155,0,0,0-.032-.143c-.031-.04-.058-.049-.093-.028-.01.007-.024-.006-.043-.012-.01.021-.024.072-.054.041a.263.263,0,0,1-.022-.067c-.035.041-.036.069,0,.14l-.027.041c.07.012.076.021.083.124l-.032.021a.145.145,0,0,1,.036.14c0,.033-.015.054-.045.032a.348.348,0,0,0,.022.078.055.055,0,0,1,.009.064c-.008.013-.025.008-.038.006s-.01-.013-.015-.02l-.008.008a.582.582,0,0,0,.03.092.137.137,0,0,1-.006.148.018.018,0,0,1-.024,0v0c-.026-.067-.052-.135-.074-.207-.015-.048-.022-.1-.036-.167l0,.069a.619.619,0,0,1-.022-.378c.029-.1.051-.2.076-.307,0-.015,0-.031,0-.046l-.037.059-.1-.165-.007.011.031.1-.39-.041,0,.032.3.157c-.041.016-.1-.013-.151-.014a.967.967,0,0,1-.178-.026c-.058-.013-.116-.031-.175-.047l0,.016a.824.824,0,0,0,.082.105.528.528,0,0,0,.268.125l.019,0V76.2l-.338.071a.215.215,0,0,0,.131.085c.047.013.095.021.142.031m.613-.267c.032-.026.045.031.045.031s-.077-.005-.045-.031"/>
    <path class="cls-1" d="M91.569,76.357a.21.21,0,0,0,.131-.084l-.338-.071v-.016l.019,0a.526.526,0,0,0,.268-.124.824.824,0,0,0,.082-.105l0-.016c-.059.016-.117.034-.175.046a.89.89,0,0,1-.178.027c-.055,0-.11.03-.151.014l.3-.158,0-.031-.39.041.031-.1-.007-.011-.1.165-.037-.059c0,.015,0,.031,0,.046.025.1.047.208.076.307a.619.619,0,0,1-.022.378l0-.069c-.014.064-.021.119-.036.167-.022.072-.048.14-.074.207a.017.017,0,0,1-.023.008h0a.137.137,0,0,1-.006-.148.707.707,0,0,0,.03-.092l-.008-.008c0,.007-.01.02-.015.02s-.03.006-.038-.006a.055.055,0,0,1,.009-.064.348.348,0,0,0,.022-.078c-.03.022-.04,0-.045-.032a.145.145,0,0,1,.036-.14l-.032-.021c.007-.1.013-.112.083-.124l-.027-.041c.037-.071.036-.1,0-.14a.231.231,0,0,1-.023.067c-.029.031-.043-.02-.054-.041-.018.006-.032.019-.042.012-.035-.021-.062-.012-.093.028a.155.155,0,0,0-.032.143c.053-.021.066-.01.059.052l-.013-.009a.3.3,0,0,1,.009.06c-.026.036-.006.065,0,.1.018.067,0,.107-.045.105.012.028.023.048.03.07a.115.115,0,0,1,.007.052.024.024,0,0,1-.028.015c-.011,0-.02-.02-.03-.03l-.007.009c.011.035.023.069.033.1a.2.2,0,0,1,.01.073.36.36,0,0,1-.038.079.642.642,0,0,1-.033-.064c-.008-.019-.013-.065-.017-.064-.031.009-.026-.043-.033-.068-.017-.06-.029-.124-.046-.2l0,.075a.613.613,0,0,1-.02-.383c.02-.065.04-.131.056-.2.011-.043.016-.092.023-.138l-.007-.006-.03.05-.108-.165,0,.012.036.116a.861.861,0,0,0-.4-.036.78.78,0,0,0,.1.067c.034.02.068.04.1.056s.068.029.106.045a1.993,1.993,0,0,1-.52-.081c.1.2.234.206.364.261l-.34.071a.423.423,0,0,0,.278.114V76.4l-.274.111a.38.38,0,0,0,.274.073l-.258.191a.486.486,0,0,0,.282-.022l-.223.254c.094.021.176-.045.261-.095l-.148.256c.013,0,.02,0,.027-.006l.183-.139-.069.191c.056,0,.088-.067.129-.123l-.028.219a.37.37,0,0,0,.1-.23.161.161,0,0,1,.006.044.235.235,0,0,0,0,.027c.006.051.012.1.02.168l.04-.135.011.058.011.058.017-.064a.568.568,0,0,1,.014.092.275.275,0,0,1-.01.085c0,.008-.025,0-.048-.009.016.032.025.065.038.072s.034-.005.044-.022a.249.249,0,0,0,.008-.035.371.371,0,0,1-.018.123c-.029.053-.062.035-.095.006l-.006.011.029.108c-.015.044-.039.044-.068.043l.056.058-.045.1.039-.013,0,.017-.048.106c-.031.071-.044.072-.086.024a.46.46,0,0,0-.09-.075c-.007,0-.021.007-.028.018a.536.536,0,0,0-.024.06c.032,0,.033,0,.024.063l.06-.008-.015.066c.009.006.017.015.025.016s.024,0,.031-.008c.031-.045.047-.043.074.01a.328.328,0,0,0,.042.056c.019.025.039.048.059.072l.007-.043c.007-.042.009-.071-.024-.08s-.047-.063-.023-.12c.016-.039.034-.076.052-.117l.014.045.044-.123.046.051v-.143c.032.073.041.081.077.078a.218.218,0,0,1-.02-.05.588.588,0,0,1,0-.073c.016,0,.034-.006.049,0a.109.109,0,0,1,.021.055,1.036,1.036,0,0,1,.012.112c0,.077-.018.106-.058.079a.285.285,0,0,1-.028-.022c.013.079.044.1.081.106-.031.085-.071.115-.126.087.036.072.071.089.119.052.027-.021.038-.007.044.039,0,.023.008.046.015.081l.012-.07c.012-.068.014-.07.049-.046s.085.008.121-.057c-.069.023-.1,0-.128-.083.058-.03.065-.04.074-.1-.013.008-.025.023-.038.024a.035.035,0,0,1-.035-.019.362.362,0,0,1,.031-.242.039.039,0,0,1,.043.01.209.209,0,0,1,0,.066.283.283,0,0,1-.023.057c.035,0,.06-.023.079-.077v.14l.046-.056.045.126.015-.053c.018.042.036.08.053.119.027.064.019.111-.026.126-.024.008-.025.033-.022.065s.007.042.01.059l.027-.035a1.014,1.014,0,0,1,.083-.112c.015-.016.045-.027.054-.012.019.034.031.045.052.014,0,0,.011,0,.017,0l-.018-.073.063.008c-.013-.04-.014-.07.019-.07a.27.27,0,0,0-.022-.053c-.008-.011-.022-.023-.03-.017-.034.026-.067.063-.1.088-.015.011-.042.018-.051,0a1.657,1.657,0,0,1-.078-.165l.041.016-.045-.1.054-.06,0-.013c-.028.019-.052.012-.064-.028l.029-.112c-.058.031-.083.026-.109-.029a.356.356,0,0,1-.025-.218c.007.129.023.178.059.172s.036-.034.035-.083c-.036.036-.049.024-.048-.047a.886.886,0,0,1,.012-.1h.007l.017.061.02-.183,0,.015.017-.025a.2.2,0,0,0,.018.184.769.769,0,0,0,.018-.151c0-.051.02-.084.017-.132,0,.055-.017.115.012.164s.046.083.068.125l.007-.012-.027-.206c.043.061.075.128.13.124l-.072-.2a.57.57,0,0,0,.213.153l-.148-.258c.085.052.167.115.259.094l-.214-.244a.542.542,0,0,0,.274.012l-.257-.189a.7.7,0,0,1,.137-.013.184.184,0,0,0,.134-.062l-.272-.11,0-.015c.047-.01.095-.018.142-.032m-.8-.2s.013-.057.045-.032-.045.032-.045.032"/>
    <path class="cls-1" d="M91.685,67.342a.211.211,0,0,1-.066-.01,34.859,34.859,0,0,0-7.9-1.421,37.918,37.918,0,0,0-6.6.156,31.344,31.344,0,0,0-6.214,1.263.226.226,0,0,1-.288-.139.229.229,0,0,1-.008-.119,2.636,2.636,0,0,0-.175-1.276,5.18,5.18,0,0,0-2.475-2.564.226.226,0,0,1,.052-.416,6.819,6.819,0,0,1,1.239-.18,3.99,3.99,0,0,1,2.294.442A2.24,2.24,0,0,1,72.59,64.54a.226.226,0,0,1-.4.184.528.528,0,0,0-.507-.188c-.08.015-.144.134-.149.277-.01.261.155.586.649.718a.392.392,0,0,0,.377-.051c.3-.23.352-.94.348-1.17a.228.228,0,0,1,.156-.219l.469-.151a.225.225,0,0,1,.284.145l.005.02a1.106,1.106,0,0,0,.59.73.608.608,0,0,0,.6-.091.643.643,0,0,0,.206-.627c-.034-.215-.125-.264-.155-.279a.963.963,0,0,0-.741.115.226.226,0,0,1-.3-.106A.223.223,0,0,1,74,63.742a1.736,1.736,0,0,1,.658-1.337,1.834,1.834,0,0,1,.423-1.568.225.225,0,0,1,.259-.045,1.826,1.826,0,0,1,.917,1.347,1.361,1.361,0,0,1,1.137,1.089.226.226,0,0,1-.176.266.2.2,0,0,1-.091,0,.989.989,0,0,0-.72.108.465.465,0,0,0-.128.4.715.715,0,0,0,.283.471.833.833,0,0,0,.718-.017c.639-.237.4-1.093.388-1.129a.228.228,0,0,1,.155-.281l.015,0,.409-.087a.225.225,0,0,1,.268.173v0A1.919,1.919,0,0,0,79.25,64.3a.953.953,0,0,0,.844-.024c.1-.06.872-.551.527-1.172-.131-.236-.286-.333-.461-.291a.6.6,0,0,0-.422.5.226.226,0,0,1-.435.078c-.055-.135-.52-1.336-.066-2.038a1.072,1.072,0,0,1,.921-.465.3.3,0,0,1,.052,0,.913.913,0,0,1,.191.064c.035-.58.183-1.469.753-1.729a.215.215,0,0,1,.094-.021h.095a.214.214,0,0,1,.093.021c.57.26.719,1.149.754,1.729a.913.913,0,0,1,.191-.064.292.292,0,0,1,.051,0,1.073,1.073,0,0,1,.922.465c.454.7-.012,1.9-.066,2.038a.226.226,0,0,1-.435-.078.605.605,0,0,0-.423-.5c-.175-.042-.33.055-.461.291-.345.621.426,1.111.528,1.172a.948.948,0,0,0,.845.023,1.865,1.865,0,0,0,.733-1.168.225.225,0,0,1,.265-.177h0l.41.087a.227.227,0,0,1,.173.269l0,.016c-.01.035-.246.88.393,1.13a.766.766,0,0,0,.664.028.7.7,0,0,0,.286-.456.491.491,0,0,0-.132-.415.926.926,0,0,0-.674-.118.225.225,0,0,1-.262-.267,1.4,1.4,0,0,1,1.1-1.116,1.737,1.737,0,0,1,.961-1.325.225.225,0,0,1,.248.05,1.837,1.837,0,0,1,.423,1.568,1.992,1.992,0,0,1,.749,1.359.225.225,0,0,1-.2.251.228.228,0,0,1-.124-.02,1.149,1.149,0,0,0-.842-.133c-.051.027-.12.082-.147.255a.643.643,0,0,0,.206.627.606.606,0,0,0,.6.091,1.1,1.1,0,0,0,.591-.73.226.226,0,0,1,.271-.17l.018,0,.468.151a.228.228,0,0,1,.157.219c0,.23.053.94.348,1.17a.392.392,0,0,0,.377.051c.494-.132.659-.457.649-.717,0-.144-.07-.263-.15-.278a.523.523,0,0,0-.506.188.226.226,0,0,1-.4-.184,2.24,2.24,0,0,1,1.045-1.462,3.987,3.987,0,0,1,2.294-.442,6.808,6.808,0,0,1,1.238.18.226.226,0,0,1,.053.416c-3.044,1.693-2.727,3.826-2.723,3.847a.226.226,0,0,1-.186.26A.231.231,0,0,1,91.685,67.342Zm-10.357-1.96q1.212,0,2.414.077a35.4,35.4,0,0,1,7.7,1.35,3.5,3.5,0,0,1,.239-1.143,5.524,5.524,0,0,1,2.213-2.52,4.243,4.243,0,0,0-2.62.319,1.743,1.743,0,0,0-.618.621.98.98,0,0,1,.333.006.693.693,0,0,1,.518.7,1.189,1.189,0,0,1-.984,1.171.842.842,0,0,1-.772-.131,1.946,1.946,0,0,1-.518-1.365l-.1-.033a1.438,1.438,0,0,1-.8.82,1.066,1.066,0,0,1-1.046-.164,1.092,1.092,0,0,1-.368-1.047.749.749,0,0,1,.383-.584,1.165,1.165,0,0,1,.834-.031,1.023,1.023,0,0,0-.537-.682.226.226,0,0,1-.146-.276,1.6,1.6,0,0,0-.163-1.189,1.345,1.345,0,0,0-.566,1.043.226.226,0,0,1-.215.209.987.987,0,0,0-.772.491,1.115,1.115,0,0,1,.687.245.924.924,0,0,1,.285.793l0,.017a1.17,1.17,0,0,1-.5.79,1.184,1.184,0,0,1-1.06,0,1.225,1.225,0,0,1-.723-1.34A2.052,2.052,0,0,1,83.55,64.7a1.394,1.394,0,0,1-1.246-.016l-.021-.01c-.447-.255-1.171-.957-.708-1.79a.841.841,0,0,1,.962-.509,1.008,1.008,0,0,1,.495.3,1.552,1.552,0,0,0-.057-1.08.629.629,0,0,0-.528-.257.447.447,0,0,0-.273.206.225.225,0,0,1-.429-.107c.025-.574-.077-1.537-.45-1.777-.418.267-.466,1.391-.449,1.777a.226.226,0,0,1-.43.107.443.443,0,0,0-.272-.206.626.626,0,0,0-.528.257,1.552,1.552,0,0,0-.057,1.08,1.008,1.008,0,0,1,.5-.3.841.841,0,0,1,.962.509,1.361,1.361,0,0,1-.708,1.79l-.021.01a1.4,1.4,0,0,1-1.247.016,2.053,2.053,0,0,1-.875-1.158,1.2,1.2,0,0,1-.728,1.337,1.246,1.246,0,0,1-1.113-.022,1.175,1.175,0,0,1-.494-.807v-.013a.9.9,0,0,1,.284-.776,1.141,1.141,0,0,1,.728-.24.959.959,0,0,0-.788-.448.226.226,0,0,1-.224-.209,1.451,1.451,0,0,0-.541-1.069,1.605,1.605,0,0,0-.156,1.181.227.227,0,0,1-.146.275.865.865,0,0,0-.479.653,1.058,1.058,0,0,1,.767.035.774.774,0,0,1,.391.608,1.092,1.092,0,0,1-.367,1.048,1.066,1.066,0,0,1-1.046.164,1.438,1.438,0,0,1-.8-.82l-.1.033a1.941,1.941,0,0,1-.517,1.365.844.844,0,0,1-.773.131,1.191,1.191,0,0,1-.984-1.171.7.7,0,0,1,.518-.7.986.986,0,0,1,.334-.006,1.759,1.759,0,0,0-.618-.621,4.246,4.246,0,0,0-2.621-.319A5.328,5.328,0,0,1,70.87,65.67a3.4,3.4,0,0,1,.209,1.13,33.789,33.789,0,0,1,5.977-1.181A39.066,39.066,0,0,1,81.328,65.382Z"/>
    <path class="cls-1" d="M78.073,63.4a.777.777,0,1,1,.777-.777A.777.777,0,0,1,78.073,63.4Zm0-1.1a.326.326,0,1,0,.325.325A.324.324,0,0,0,78.073,62.3Z"/>
    <path class="cls-1" d="M73.174,64.455a.778.778,0,1,1,.777-.778h0A.778.778,0,0,1,73.174,64.455Zm0-1.1a.326.326,0,1,0,.326.326h0a.327.327,0,0,0-.326-.326Z"/>
    <path class="cls-1" d="M84.532,63.4a.777.777,0,1,1,.777-.777A.777.777,0,0,1,84.532,63.4Zm0-1.1a.326.326,0,1,0,.325.325h0A.326.326,0,0,0,84.532,62.3Z"/>
    <path class="cls-1" d="M89.453,64.387a.778.778,0,1,1,.777-.778h0A.78.78,0,0,1,89.453,64.387Zm0-1.1a.326.326,0,1,0,.325.326h0A.326.326,0,0,0,89.453,63.284Z"/>
    <path class="cls-1" d="M32.67,86.034l.13.015c.006,0,.017,0,.017,0,.023-.068.115-.085.117-.173a2.05,2.05,0,0,1,.035-.258l.024,0c.015.047.027.094.038.142a.974.974,0,0,1-.078.385c0,.012-.007.023-.012.04.088,0,.179.063.245-.05,0-.024-.052-.062.008-.09a.106.106,0,0,0-.007-.04.668.668,0,0,1,.01-.454,2.089,2.089,0,0,0,.068-.376.163.163,0,0,1,.137-.09c.187.009.374.021.559.032l.048.334.02,0a.44.44,0,0,0,0-.051c0-.02-.013-.041-.009-.059.017-.073.037-.144.058-.216,0-.007.015-.013.023-.015l.251-.073c.026.068.054.146.084.222.018.046.042.089.058.136a.676.676,0,0,1,.043.16.917.917,0,0,1-.064.359,1.133,1.133,0,0,1-.067.141c.16.081.182.073.194-.067l.051.017c0-.006.007-.012.006-.016a.623.623,0,0,1,.048-.322c.022-.079.035-.161.052-.246a.519.519,0,0,1,.081.41c-.008.042-.014.085-.021.127a.23.23,0,0,1-.068.139.241.241,0,0,0-.04.084l.092.031h.018c.09,0,.09,0,.1-.09,0-.014,0-.028,0-.046l.062.005a2.587,2.587,0,0,1,.069-.595.33.33,0,0,0-.015-.184,1,1,0,0,1-.056-.451c.013-.108.03-.214.046-.321a.078.078,0,0,1,.024-.042c0,.137-.005.273,0,.409s.026.251.045.375a.609.609,0,0,1,.011.229.268.268,0,0,0,.007.08l.026,0c.006-.03.013-.061.019-.091,0-.008,0-.018,0-.024a.384.384,0,0,0-.028-.3.47.47,0,0,1-.015-.2,1.335,1.335,0,0,0-.037-.664c-.012-.046-.026-.09-.042-.134a.865.865,0,0,0-.1-.134c-.008-.012-.043-.051-.063-.055-.069-.012-.139-.026-.209-.036-.053-.007-.107-.012-.161-.014s-.135,0-.2,0c-.143,0-.286,0-.429-.009a1.158,1.158,0,0,0-.357.023h-.012c-.151-.024-.3-.042-.451-.074a1.325,1.325,0,0,1-.225-.091.647.647,0,0,0,.2-.431c.011-.066.023-.131.035-.2l-.016-.008a.436.436,0,0,0-.042.072c-.028.081-.051.163-.078.244a.3.3,0,0,1-.264.2c-.012,0-.028-.014-.043-.021-.031-.016-.065-.047-.093-.042a.154.154,0,0,1-.134-.049,1.154,1.154,0,0,1-.279-.4c-.02-.077-.031-.156-.058-.235a.369.369,0,0,0-.009.058.863.863,0,0,0,.118.486,1.578,1.578,0,0,1,.079.146c.021.042,0,.073-.041.092a.087.087,0,0,0-.041.051,1.018,1.018,0,0,1-.234.416.119.119,0,0,0-.016.166.113.113,0,0,0,.065.039c.058.018.139,0,.2.09s.12.073.2.109c.036.017.053.081.075.125a1.088,1.088,0,0,1,.058.131.21.21,0,0,1,.016.082.119.119,0,0,0,.059.113c.047.032.1.061.142.094a.154.154,0,0,1,.076.136c0,.127.018.255.02.382a.473.473,0,0,1-.1.33.72.72,0,0,0-.053.089"/>
  </g>
</svg>